<?xml version="1.0" encoding="UTF-8" standalone="no"?>
<!-- Created with Inkscape (http://www.inkscape.org/) -->

<svg
   xmlns:dc="http://purl.org/dc/elements/1.1/"
   xmlns:cc="http://creativecommons.org/ns#"
   xmlns:rdf="http://www.w3.org/1999/02/22-rdf-syntax-ns#"
   xmlns:svg="http://www.w3.org/2000/svg"
   xmlns="http://www.w3.org/2000/svg"
   xmlns:sodipodi="http://sodipodi.sourceforge.net/DTD/sodipodi-0.dtd"
   xmlns:inkscape="http://www.inkscape.org/namespaces/inkscape"
   width="50.000034mm"
   height="50.370312mm"
   viewBox="0 0 50.000034 50.370312"
   version="1.1"
   id="svg4439"
   inkscape:version="0.92.3 (2405546, 2018-03-11)"
   sodipodi:docname="snow-flake-04.svg">
  <defs
     id="defs4433" />
  <sodipodi:namedview
     id="base"
     pagecolor="#ffffff"
     bordercolor="#666666"
     borderopacity="1.0"
     inkscape:pageopacity="0.0"
     inkscape:pageshadow="2"
     inkscape:zoom="1.979899"
     inkscape:cx="31.361937"
     inkscape:cy="129.25679"
     inkscape:document-units="mm"
     inkscape:current-layer="layer1"
     showgrid="false"
     fit-margin-top="0"
     fit-margin-left="0"
     fit-margin-right="0"
     fit-margin-bottom="0"
     inkscape:window-width="1920"
     inkscape:window-height="1060"
     inkscape:window-x="1920"
     inkscape:window-y="0"
     inkscape:window-maximized="1" />
  <metadata
     id="metadata4436">
    <rdf:RDF>
      <cc:Work
         rdf:about="">
        <dc:format>image/svg+xml</dc:format>
        <dc:type
           rdf:resource="http://purl.org/dc/dcmitype/StillImage" />
        <dc:title></dc:title>
      </cc:Work>
    </rdf:RDF>
  </metadata>
  <g
     inkscape:label="Layer 1"
     inkscape:groupmode="layer"
     id="layer1"
     transform="translate(0,-246.62982)">
    <path
       style="color:#000000;font-style:normal;font-variant:normal;font-weight:normal;font-stretch:normal;font-size:medium;line-height:normal;font-family:sans-serif;font-variant-ligatures:normal;font-variant-position:normal;font-variant-caps:normal;font-variant-numeric:normal;font-variant-alternates:normal;font-feature-settings:normal;text-indent:0;text-align:start;text-decoration:none;text-decoration-line:none;text-decoration-style:solid;text-decoration-color:#000000;letter-spacing:normal;word-spacing:normal;text-transform:none;writing-mode:lr-tb;direction:ltr;text-orientation:mixed;dominant-baseline:auto;baseline-shift:baseline;text-anchor:start;white-space:normal;shape-padding:0;clip-rule:nonzero;display:inline;overflow:visible;visibility:visible;opacity:1;isolation:auto;mix-blend-mode:normal;color-interpolation:sRGB;color-interpolation-filters:linearRGB;solid-color:#000000;solid-opacity:1;vector-effect:none;fill:#000000;fill-opacity:1;fill-rule:nonzero;stroke:none;stroke-width:0.98871118;stroke-linecap:butt;stroke-linejoin:miter;stroke-miterlimit:4;stroke-dasharray:none;stroke-dashoffset:0;stroke-opacity:1;color-rendering:auto;image-rendering:auto;shape-rendering:auto;text-rendering:auto;enable-background:accumulate"
       d="m 27.848636,246.67052 c -0.2684,-0.10813 -0.57525,0.0185 -0.72609,0.15448 -0.30167,0.27208 -0.44531,0.62817 -0.63532,1.15479 -0.38001,1.05323 -0.77483,2.76122 -1.13354,5.08838 -0.35886,2.3281 -0.66484,5.2447 -0.88251,8.46391 -0.15034,2.22354 -0.18731,4.68341 -0.23945,7.1025 -0.28138,-1.05674 -0.50804,-2.15425 -0.80526,-3.17855 -1.9071,-6.5726 -4.0466,-12.14384 -5.54412,-15.0064 -0.37399,-0.7149 -0.70155,-1.25581 -0.9945,-1.64334 -0.14648,-0.19377 -0.28409,-0.34977 -0.43063,-0.47505 -0.14654,-0.12527 -0.30376,-0.24562 -0.5658,-0.25683 -0.26205,-0.0112 -0.54238,0.20182 -0.63726,0.39394 -0.0949,0.19212 -0.1129,0.37167 -0.11973,0.57739 -0.0136,0.41144 0.0558,0.93699 0.20276,1.62983 0.58885,2.77519 2.48499,8.07794 5.29502,14.17217 0.66285,1.43757 1.47976,2.92877 2.22267,4.40865 -1.30074,-1.40751 -2.59927,-2.88492 -3.87568,-4.17113 -2.33443,-2.35234 -4.56865,-4.44814 -6.48262,-6.08868 -1.91334,-1.64 -3.4787296,-2.81099 -4.5978996,-3.49911 -0.55957,-0.34406 -0.99562,-0.56947 -1.37492,-0.67588 -0.18965,-0.0532 -0.37054,-0.0988 -0.61215,-0.0212 -0.12081,0.0388 -0.25651,0.12771 -0.3418,0.25297 -0.0853,0.12527 -0.11427,0.26546 -0.11586,0.38043 -0.007,0.46258 0.21565,0.74622 0.52718,1.19147 0.31153,0.44525 0.75796,0.98411 1.33437,1.61438 1.15282,1.26053 2.8289596,2.88001 4.9609396,4.72534 2.13245,1.84577 4.70214,3.89404 7.46747,5.95158 0.63695,0.47392 1.33609,0.91195 1.99094,1.38458 -2.52227,-0.90011 -5.07037,-1.80592 -7.39795,-2.49881 -6.0967496,-1.81491 -10.8730996,-2.74027 -12.9459396,-2.70351 -0.25839,0.005 -0.47635997,0.0238 -0.67007997,0.0657 -0.19373,0.0418 -0.376564,0.0908 -0.550361,0.27035 -0.173796,0.17951 -0.215467,0.54637 -0.121658,0.75119 0.09381,0.20483 0.228661,0.32455 0.386209,0.44801 0.63022997,0.49385 1.83688997,1.00319 3.73856997,1.61438 3.73343,1.1999 9.9858796,2.58245 16.7849196,3.5667 -3.33368,0.4826 -6.55459,1.05307 -9.38696,1.66073 -2.9442496,0.63165 -5.4950896,1.29439 -7.3979596,1.90597 -1.90169,0.61119 -3.10834,1.12052 -3.73856997,1.61438 -0.157548,0.12346 -0.292401,0.24125 -0.386209,0.44608 -0.09381,0.20482 -0.05214,0.57361 0.121658,0.75312 0.173799,0.17951 0.356631,0.22853 0.550361,0.27035 0.19373,0.0418 0.41168997,0.0611 0.67007997,0.0657 2.07287,0.0368 6.84919,-0.89051 12.9459396,-2.70544 2.32826,-0.6931 4.87684,-1.59839 7.39989,-2.49881 -0.6556,0.47315 -1.35522,0.91206 -1.99288,1.38651 -2.76533,2.05754 -5.33502,4.10389 -7.46747,5.94965 -2.13197,1.84533 -3.8080096,3.4648 -4.9609396,4.72534 -0.57646,0.63027 -1.02286,1.16909 -1.33437,1.61438 -0.31151,0.44529 -0.53433,0.73036 -0.52718,1.1934 0.002,0.11498 0.0305,0.25521 0.11586,0.38043 0.0853,0.12521 0.22101,0.21229 0.3418,0.25104 0.24158,0.0775 0.42443,0.0339 0.61408,-0.0193 0.37932,-0.10641 0.81343,-0.33182 1.37299,-0.67588 1.11913,-0.68812 2.6845596,-1.85911 4.5978996,-3.49911 1.91397,-1.64055 4.14819,-3.73634 6.48262,-6.08868 1.27641,-1.28621 2.57494,-2.76362 3.87568,-4.17113 -0.74291,1.47988 -1.55982,2.97108 -2.22267,4.40865 -1.40501,3.04711 -2.58084,5.89636 -3.4798,8.33066 -0.89898,2.4343 -1.52079,4.45391 -1.81522,5.84151 -0.14701,0.69284 -0.21642,1.21839 -0.20276,1.62983 0.007,0.20572 0.0248,0.38526 0.11973,0.57739 0.0949,0.19212 0.37521,0.40515 0.63726,0.39394 0.26204,-0.0112 0.41926,-0.13156 0.5658,-0.25684 0.14654,-0.12527 0.28415,-0.28128 0.43063,-0.47504 0.29295,-0.38753 0.62051,-0.92844 0.9945,-1.64335 0.74876,-1.43127 1.65806,-3.5399 2.61855,-6.11185 0.96047,-2.57195 1.97202,-5.60824 2.92557,-8.89454 0.29722,-1.0243 0.52388,-2.12181 0.80526,-3.17855 0.0521,2.41908 0.0891,4.87896 0.23945,7.1025 0.21767,3.21921 0.52365,6.13388 0.88251,8.46197 0.35871,2.32716 0.75353,4.03709 1.13354,5.09032 0.19001,0.52661 0.33365,0.88077 0.63532,1.15285 0.15084,0.13604 0.45769,0.26455 0.72609,0.15642 0.2684,-0.10813 0.36987,-0.30917 0.44608,-0.49049 0.15335,-0.36485 0.21292,-0.82546 0.25104,-1.46376 0.0382,-0.6383 0.0387,-1.43728 0,-2.38681 -0.0773,-1.89905 -0.31301,-4.39346 -0.7396,-7.31492 -0.42668,-2.922 -1.04434,-6.23956 -1.79397,-9.64959 -0.0411,-0.18717 -0.099,-0.37233 -0.14097,-0.56001 1.51848,2.74751 3.07203,5.44137 4.55348,7.76293 1.65302,2.59044 3.19342,4.76844 4.47816,6.4131 1.28474,1.64466 2.2761,2.7401 2.99317,3.24421 0.17851,0.1255 0.33658,0.22011 0.53684,0.27035 0.20026,0.0503 0.53346,0.0102 0.7145,-0.20662 0.18103,-0.21688 0.18108,-0.43461 0.168,-0.62567 -0.013,-0.19107 -0.0591,-0.38599 -0.12939,-0.61022 -0.28082,-0.89691 -0.98002,-2.26949 -2.12804,-4.12285 -1.14858,-1.85427 -2.73712,-4.14759 -4.61913,-6.6429 -1.5534,-2.05961 -3.39313,-4.28306 -5.26026,-6.48842 0.40901,0.27023 0.80091,0.57637 1.20886,0.84002 5.83512,3.77107 11.3633,6.74043 14.70901,8.12018 0.83576,0.34466 1.52902,0.59044 2.08556,0.74346 0.55654,0.15301 0.94933,0.23475 1.33438,0.168 0.19251,-0.0334 0.45407,-0.14331 0.57159,-0.40938 0.11752,-0.26608 0.0329,-0.50838 -0.0579,-0.67974 -0.18181,-0.34273 -0.48939,-0.63342 -0.9636,-1.01768 -1.90051,-1.54 -6.47746,-4.1458 -12.44579,-6.84374 -1.85681,-0.83935 -3.94178,-1.63464 -5.96896,-2.44667 4.86324,0.48798 9.61171,0.82729 13.34181,0.82071 2.67528,-0.005 4.81876,-0.13796 6.31655,-0.3418 0.7489,-0.10193 1.3334,-0.21915 1.76693,-0.36111 0.21677,-0.071 0.39585,-0.14501 0.55808,-0.25491 0.16223,-0.10989 0.36497,-0.29999 0.36497,-0.61022 0,-0.31022 -0.20275,-0.5003 -0.36497,-0.61022 -0.16221,-0.10991 -0.34131,-0.18388 -0.55808,-0.2549 -0.43354,-0.14203 -1.01802,-0.25914 -1.76693,-0.36111 -1.49782,-0.20395 -3.64123,-0.33708 -6.31655,-0.3418 -2.67604,-0.005 -5.85438,0.12314 -9.23248,0.37656 -1.32945,0.0997 -2.73244,0.30443 -4.10547,0.44222 2.02577,-0.81153 4.10953,-1.60595 5.9651,-2.44475 5.96833,-2.69793 10.54528,-5.30567 12.44579,-6.84566 0.47421,-0.38426 0.78179,-0.67302 0.9636,-1.01575 0.0909,-0.17136 0.17545,-0.4156 0.0579,-0.68167 -0.11752,-0.26607 -0.37907,-0.37408 -0.57159,-0.40746 -0.38505,-0.0668 -0.77784,0.015 -1.33438,0.16801 -0.55654,0.15301 -1.2498,0.39879 -2.08556,0.74346 -3.34571,1.37976 -8.87389,4.34912 -14.70901,8.12018 -0.40825,0.26384 -0.79954,0.57151 -1.20886,0.84195 4.12975,-4.87772 7.78256,-9.74815 9.87939,-13.13325 1.14802,-1.85335 1.84722,-3.22594 2.12804,-4.12285 0.0702,-0.22423 0.11631,-0.41916 0.12939,-0.61022 0.0131,-0.19107 0.0131,-0.40879 -0.168,-0.62567 -0.18104,-0.21688 -0.51424,-0.25687 -0.7145,-0.20663 -0.20026,0.0502 -0.35833,0.14486 -0.53684,0.27035 -0.71707,0.50412 -1.70843,1.59956 -2.99317,3.24421 -1.28474,1.64466 -2.82514,3.82267 -4.47816,6.41311 -1.48145,2.32156 -3.035,5.01541 -4.55348,7.76293 0.0419,-0.18768 0.0998,-0.37284 0.14097,-0.56002 0.74963,-3.41002 1.36729,-6.72758 1.79397,-9.64959 0.42659,-2.92145 0.6623,-5.41586 0.7396,-7.31491 0.0387,-0.94953 0.0382,-1.75044 0,-2.38874 -0.0382,-0.63831 -0.0977,-1.09698 -0.25104,-1.46183 -0.0762,-0.18133 -0.17768,-0.38237 -0.44608,-0.49049 z m -0.36691,1.51396 c 0.0278,0.18311 0.0619,0.24041 0.0772,0.49822 0.0352,0.58948 0.0358,1.36215 -0.002,2.28833 -0.0754,1.85235 -0.30747,4.31921 -0.72995,7.21257 -0.3629,2.48521 -0.92387,5.34546 -1.53134,8.23024 0.18282,-5.03449 0.51585,-9.82675 1.03505,-13.19504 0.35299,-2.29002 0.75008,-3.96864 1.0872,-4.903 0.0293,-0.0812 0.0339,-0.0615 0.0637,-0.13132 z m -11.29872,1.35562 c 0.22814,0.31783 0.49751,0.74764 0.82263,1.36913 0.71582,1.36832 1.6105,3.44232 2.56255,5.9902 0.95205,2.54788 1.96147,5.56804 2.90819,8.83081 0.1091,0.376 0.18832,0.78694 0.29546,1.1683 -0.39791,-0.82067 -0.87159,-1.66336 -1.24169,-2.46598 -1.39456,-3.02448 -2.56385,-5.86496 -3.45276,-8.27466 -0.8889,-2.40971 -1.49692,-4.38719 -1.77272,-5.68702 -0.0923,-0.43507 -0.0985,-0.66282 -0.12166,-0.93078 z m 21.85206,2.85413 c -0.28383,0.75856 -0.80716,1.86667 -1.81715,3.49718 -1.12539,1.81683 -2.69873,4.08449 -4.56699,6.5618 -1.14059,1.51241 -2.5417,3.15746 -3.86602,4.76975 1.16718,-2.04798 2.34501,-4.15253 3.47208,-5.91874 1.63839,-2.56752 3.16415,-4.72295 4.42409,-6.33587 1.06575,-1.36431 1.80402,-2.0935 2.35399,-2.57412 z m -31.2564096,3.64201 c 0.1989,0.0963 0.32325,0.13148 0.60249,0.30318 1.04193,0.64062 2.58513,1.7907 4.4723796,3.40835 1.88664,1.61711 4.10336,3.69558 6.42277,6.03268 0.78833,0.79435 1.59114,1.73001 2.39453,2.57606 -2.87238,-2.12621 -5.55583,-4.24189 -7.74749,-6.1389 -2.10935,-1.82575 -3.7627996,-3.42496 -4.8778896,-4.64423 -0.55754,-0.60964 -0.98133,-1.12529 -1.25327,-1.51397 -0.0104,-0.0148 -0.004,-0.009 -0.0136,-0.0232 z M 45.701436,260.75 c -0.1063,0.10346 -0.103,0.13255 -0.25876,0.25876 -0.85719,0.69458 -2.43331,1.70177 -4.5361,2.87151 -2.1028,1.16974 -4.73055,2.50052 -7.69148,3.83898 -1.24316,0.56196 -2.67028,1.08713 -4.00312,1.64142 5.68313,-3.6521 11.08043,-6.55363 14.261,-7.86528 0.80994,-0.33401 1.47394,-0.56608 1.97163,-0.70291 0.14175,-0.039 0.14166,-0.0205 0.25683,-0.0425 z m -44.0208196,5.37418 c 1.85287,0.0222 6.50283,0.87841 12.3743296,2.62627 1.63915,0.48795 3.46019,1.16299 5.21971,1.76307 -5.9936,-0.95029 -11.5093796,-2.14808 -14.7997696,-3.20559 -1.5125,-0.48611 -2.24679,-0.87193 -2.79427,-1.18375 z m 39.3109296,5.11156 c 2.6434,0.005 4.7563,0.13758 6.18523,0.33215 0.54913,0.0748 0.89495,0.16233 1.22431,0.24717 -0.32935,0.0848 -0.6753,0.17246 -1.22431,0.24718 -1.42896,0.19448 -3.5418,0.32711 -6.18523,0.33215 -2.64278,0.005 -5.79802,-0.12486 -9.15524,-0.37656 -0.61214,-0.0459 -1.2668,-0.1487 -1.89052,-0.20277 0.62377,-0.0541 1.27833,-0.15877 1.89052,-0.20469 3.35721,-0.2518 6.51252,-0.37968 9.15524,-0.37463 z m -21.72075,1.88087 c -1.7582,0.59957 -3.5779,1.27548 -5.21585,1.76307 -3.02321,0.89998 -5.7525696,1.57336 -7.9425096,2.01798 -2.06321,0.41889 -3.533,0.59755 -4.43182,0.60829 0.54748,-0.31183 1.28177,-0.69764 2.79427,-1.18375 1.85508,-0.59622 4.37822,-1.25007 7.2994596,-1.87701 2.25908,-0.48482 4.88341,-0.9142 7.49645,-1.32858 z m 9.93732,1.15092 c 1.33413,0.55479 2.76268,1.08087 4.00698,1.64335 2.96093,1.33846 5.58868,2.66731 7.69148,3.83705 2.10279,1.16974 3.67891,2.17886 4.5361,2.87344 0.15576,0.12621 0.15246,0.1553 0.25876,0.25876 -0.11517,-0.022 -0.11508,-0.004 -0.25683,-0.0425 -0.49769,-0.13683 -1.16169,-0.36889 -1.97163,-0.70291 -1.61855,-0.66747 -3.80651,-1.74054 -6.31462,-3.11483 -2.42162,-1.32689 -5.15783,-2.95777 -7.95024,-4.75237 z m -8.53922,1.00609 c -0.80298,0.84559 -1.60467,1.78211 -2.3926,2.57606 -2.31941,2.3371 -4.53613,4.41557 -6.42277,6.03268 -1.8872596,1.61766 -3.4304896,2.76773 -4.4723796,3.40835 -0.27923,0.1717 -0.40359,0.20687 -0.60249,0.30318 0.01,-0.0146 0.003,-0.008 0.0135,-0.0232 0.27188,-0.38864 0.69375,-0.90433 1.25134,-1.51396 1.11518,-1.21928 2.7704596,-2.8204 4.8798196,-4.64617 2.19134,-1.89673 4.87366,-4.01106 7.74556,-6.13696 z m 7.11408,1.12968 c 1.32511,1.61319 2.72675,3.26039 3.86795,4.77362 1.86826,2.47731 3.4416,4.74498 4.56699,6.5618 1.00999,1.63051 1.53332,2.73862 1.81715,3.49718 -0.54997,-0.48061 -1.28824,-1.20981 -2.35399,-2.57412 -1.25994,-1.61292 -2.7857,-3.76835 -4.42409,-6.33587 -1.12778,-1.76732 -2.3061,-3.87322 -3.47401,-5.92261 z m -5.01114,0.32829 c -0.107,0.38083 -0.1865,0.79088 -0.29546,1.16637 -0.94672,3.26277 -1.95614,6.28486 -2.90819,8.83274 -0.95205,2.54787 -1.84673,4.62189 -2.56255,5.9902 -0.32476,0.62079 -0.59461,1.04744 -0.82263,1.36527 0.0233,-0.26762 0.0298,-0.49363 0.12166,-0.92692 0.2758,-1.29984 0.88382,-3.27732 1.77272,-5.68702 0.88891,-2.4097 2.0582,-5.25211 3.45276,-8.27659 0.36992,-0.80226 0.84398,-1.64376 1.24169,-2.46405 z m 2.52392,0.4847 c 0.60747,2.88478 1.16844,5.74503 1.53134,8.23024 0.42248,2.89336 0.65455,5.36023 0.72995,7.21257 0.0377,0.92618 0.0372,1.69885 0.002,2.28833 -0.0154,0.2578 -0.0494,0.31511 -0.0772,0.49822 -0.0299,-0.0698 -0.0344,-0.0501 -0.0637,-0.13132 -0.33712,-0.93436 -0.73421,-2.61491 -1.0872,-4.90493 -0.35284,-2.28907 -0.65656,-5.17779 -0.87284,-8.37508 -0.10198,-1.50742 -0.10364,-3.20495 -0.16221,-4.81803 z"
       id="path1075"
       inkscape:connector-curvature="0" />
  </g>
</svg>
