<?xml version="1.0" encoding="UTF-8" standalone="no"?>
<!-- Created with Inkscape (http://www.inkscape.org/) -->

<svg
   xmlns:dc="http://purl.org/dc/elements/1.1/"
   xmlns:cc="http://creativecommons.org/ns#"
   xmlns:rdf="http://www.w3.org/1999/02/22-rdf-syntax-ns#"
   xmlns:svg="http://www.w3.org/2000/svg"
   xmlns="http://www.w3.org/2000/svg"
   xmlns:sodipodi="http://sodipodi.sourceforge.net/DTD/sodipodi-0.dtd"
   xmlns:inkscape="http://www.inkscape.org/namespaces/inkscape"
   width="50mm"
   height="50.00243mm"
   viewBox="0 0 50 50.00243"
   version="1.1"
   id="svg3245"
   inkscape:version="0.92.3 (2405546, 2018-03-11)"
   sodipodi:docname="snow-flake-02.svg">
  <defs
     id="defs3239" />
  <sodipodi:namedview
     id="base"
     pagecolor="#ffffff"
     bordercolor="#666666"
     borderopacity="1.0"
     inkscape:pageopacity="0.0"
     inkscape:pageshadow="2"
     inkscape:zoom="0.49497475"
     inkscape:cx="156.33253"
     inkscape:cy="320.74671"
     inkscape:document-units="mm"
     inkscape:current-layer="layer1"
     showgrid="false"
     fit-margin-top="0"
     fit-margin-left="0"
     fit-margin-right="0"
     fit-margin-bottom="0"
     inkscape:window-width="1920"
     inkscape:window-height="1060"
     inkscape:window-x="1920"
     inkscape:window-y="0"
     inkscape:window-maximized="1" />
  <metadata
     id="metadata3242">
    <rdf:RDF>
      <cc:Work
         rdf:about="">
        <dc:format>image/svg+xml</dc:format>
        <dc:type
           rdf:resource="http://purl.org/dc/dcmitype/StillImage" />
        <dc:title></dc:title>
      </cc:Work>
    </rdf:RDF>
  </metadata>
  <g
     inkscape:label="Layer 1"
     inkscape:groupmode="layer"
     id="layer1"
     transform="translate(0,-246.99757)">
    <path
       style="color:#000000;font-style:normal;font-variant:normal;font-weight:normal;font-stretch:normal;font-size:medium;line-height:normal;font-family:sans-serif;font-variant-ligatures:normal;font-variant-position:normal;font-variant-caps:normal;font-variant-numeric:normal;font-variant-alternates:normal;font-feature-settings:normal;text-indent:0;text-align:start;text-decoration:none;text-decoration-line:none;text-decoration-style:solid;text-decoration-color:#000000;letter-spacing:normal;word-spacing:normal;text-transform:none;writing-mode:lr-tb;direction:ltr;text-orientation:mixed;dominant-baseline:auto;baseline-shift:baseline;text-anchor:start;white-space:normal;shape-padding:0;clip-rule:nonzero;display:inline;overflow:visible;visibility:visible;opacity:1;isolation:auto;mix-blend-mode:normal;color-interpolation:sRGB;color-interpolation-filters:linearRGB;solid-color:#000000;solid-opacity:1;vector-effect:none;fill:#000000;fill-opacity:1;fill-rule:nonzero;stroke:none;stroke-width:2.29948306;stroke-linecap:round;stroke-linejoin:round;stroke-miterlimit:4;stroke-dasharray:none;stroke-dashoffset:0;stroke-opacity:1;color-rendering:auto;image-rendering:auto;shape-rendering:auto;text-rendering:auto;enable-background:accumulate"
       d="m 25.029949,246.99823 c -1.315261,-0.0387 -1.335011,1.64258 -1.274658,2.55027 -0.255644,3.94914 -0.813216,7.87351 -1.614021,11.74806 -3.000206,-3.38874 -5.789069,-6.97471 -8.286223,-10.74208 -0.872134,-0.83665 -2.379014,0.33714 -1.774029,1.39022 1.97963,3.96339 3.748351,8.04206 5.075031,12.27316 -4.297906,-1.44054 -8.4854078,-3.213 -12.5405928,-5.21997 -1.185245,-0.2884 -1.880234,1.49514 -0.832928,2.0945 3.712506,2.40695 7.2183668,5.12221 10.5603918,8.0188 -4.4622128,1.03874 -9.0368828,1.52645 -13.5960198,1.81283 -1.1658,0.33732 -0.896599,2.2393 0.32056,2.23334 4.440783,0.21729 8.859686,0.7962 13.2122298,1.70052 -3.310242,3.09532 -6.9880938,5.77535 -10.7441158,8.28623 -0.842483,0.87837 0.341996,2.37669 1.390269,1.77398 3.963322,-1.97918 8.0421458,-3.74698 12.2731638,-5.07298 -1.442919,4.29627 -3.210446,8.4851 -5.219975,12.53855 -0.283145,1.17308 1.490083,1.89507 2.094503,0.83295 2.40694,-3.71251 5.122207,-7.21837 8.018794,-10.56039 1.037871,4.46236 1.526639,9.03688 1.812837,13.59602 0.336466,1.1674 2.240603,0.8972 2.233333,-0.32052 0.21711,-4.44025 0.796161,-8.8586 1.702564,-13.21019 3.095211,3.31001 5.773367,6.98788 8.284188,10.74412 0.877099,0.83751 2.377079,-0.34022 1.774085,-1.39016 -1.978881,-3.96347 -3.744296,-8.04317 -5.07299,-12.27317 4.29659,1.44154 8.486095,3.20692 12.538223,5.21947 1.18111,0.28405 1.88515,-1.49403 0.83324,-2.0961 -3.711701,-2.40753 -7.221879,-5.1203 -10.560394,-8.01884 4.463064,-1.03965 9.038454,-1.52743 13.599754,-1.80697 1.1934,-0.32554 0.91141,-2.26541 -0.32427,-2.23921 -4.440104,-0.21732 -8.858296,-0.79642 -13.210184,-1.70053 3.306942,-3.09963 6.990668,-5.77134 10.744114,-8.28622 0.83078,-0.87217 -0.33521,-2.37954 -1.39007,-1.77408 -3.958992,1.99213 -8.091673,3.61621 -12.273165,5.07503 1.44373,-4.29658 3.207479,-8.48742 5.219972,-12.5406 0.284103,-1.1802 -1.494259,-1.88491 -2.096789,-0.83284 -2.406916,3.71253 -5.122153,7.21841 -8.018794,10.56039 -1.041639,-4.46177 -1.520418,-9.03816 -1.812834,-13.59606 -0.146775,-0.43887 -0.582465,-0.75928 -1.0452,-0.76753 z m -0.0592,11.49129 c -0.07309,1.88524 1.795103,4.29219 0.209079,5.71331 -2.001556,-0.099 -0.283274,-3.51051 -0.31078,-5.08354 l 0.05088,-0.31488 z m 6.9797,1.31878 c -0.834975,1.73643 -1.191173,4.00197 -2.244864,5.42863 -2.297683,0.84946 -0.70818,-2.38205 0.457817,-3.02147 0.606441,-0.79441 1.158726,-1.62934 1.787047,-2.40716 z m -13.708301,0.52873 c 0.850038,1.66023 3.655788,2.81421 3.072204,4.77595 -1.956051,0.96442 -2.071513,-2.7763 -2.85211,-4.18941 L 18.353078,260.63 Z m -5.452698,4.7137 c 1.73618,0.83447 4.001305,1.19221 5.428294,2.24281 0.846634,2.29702 -2.381178,0.70888 -3.021106,-0.45569 -0.794415,-0.60647 -1.629403,-1.15871 -2.407188,-1.78712 z m 23.870611,0.21231 c -1.659432,0.84963 -2.813001,3.65406 -4.773922,3.07016 -0.964663,-1.95578 2.774797,-2.07071 4.187747,-2.85028 l 0.293401,-0.10905 z m -11.38922,3.65418 c 2.44386,0.21189 3.82927,3.89394 1.655367,5.37629 -2.089676,1.95082 -5.38493,-0.16375 -4.9513,-2.84127 0.245751,-1.62877 1.831505,-2.31658 3.295933,-2.53502 z m -8.888449,2.13127 c 2.481466,1.84374 -1.292395,2.04005 -2.706157,1.34297 -1.055039,-0.19724 -3.173399,-0.3597 -0.972513,-0.5884 1.22899,-0.23787 2.452698,-0.50186 3.67867,-0.75457 z m 17.103223,0.0551 c 1.365887,0.37122 4.36015,0.64108 4.716241,0.94074 -1.910694,-0.0306 -4.34686,1.88336 -5.673679,-0.10171 0.313383,-0.28624 0.642378,-0.55468 0.957438,-0.83903 z m -16.358096,4.31358 c 2.858583,0.46349 -0.15141,2.59294 -1.74754,2.5956 -1.047054,0.33947 -2.881806,1.21 -1.092694,-0.0749 0.958574,-0.82682 1.895226,-1.67853 2.840234,-2.5207 z m 15.74362,0.0429 c 0.99409,1.26126 3.756086,2.88853 4.02267,3.39583 -1.646948,-0.94531 -4.240196,-0.95682 -5.24735,-2.45508 -0.744753,-1.11834 0.644532,-0.61274 1.22468,-0.94075 z m -11.621945,2.98255 c 0.986912,2.11457 -2.915493,4.58147 -3.103942,5.46813 0.94516,-1.64615 0.957677,-4.23812 2.45313,-5.24542 l 0.324007,-0.11516 0.326847,-0.10755 z m 7.500268,0.13882 c 2.318069,0.15547 1.869525,3.21553 2.875802,4.80471 -0.290878,-0.2869 -2.783122,-2.59193 -3.146052,-3.83855 0.08879,-0.32243 0.195391,-0.63992 0.27025,-0.96616 z m -3.690932,0.9656 c 1.668203,1.41999 -0.09091,3.77855 0.0039,5.66464 -0.100905,-0.35879 -1.154349,-3.62779 -0.779069,-4.86554 0.257262,-0.26748 0.522478,-0.52725 0.775209,-0.7991 z"
       id="path1158"
       inkscape:connector-curvature="0" />
  </g>
</svg>
