<?xml version="1.0" encoding="UTF-8" standalone="no"?>
<!-- Created with Inkscape (http://www.inkscape.org/) -->

<svg
   xmlns:dc="http://purl.org/dc/elements/1.1/"
   xmlns:cc="http://creativecommons.org/ns#"
   xmlns:rdf="http://www.w3.org/1999/02/22-rdf-syntax-ns#"
   xmlns:svg="http://www.w3.org/2000/svg"
   xmlns="http://www.w3.org/2000/svg"
   xmlns:sodipodi="http://sodipodi.sourceforge.net/DTD/sodipodi-0.dtd"
   xmlns:inkscape="http://www.inkscape.org/namespaces/inkscape"
   width="50.000069mm"
   height="50.406948mm"
   viewBox="0 0 50.000069 50.406948"
   version="1.1"
   id="svg3846"
   inkscape:version="0.92.3 (2405546, 2018-03-11)"
   sodipodi:docname="snow-flake-03.svg">
  <defs
     id="defs3840" />
  <sodipodi:namedview
     id="base"
     pagecolor="#ffffff"
     bordercolor="#666666"
     borderopacity="1.0"
     inkscape:pageopacity="0.0"
     inkscape:pageshadow="2"
     inkscape:zoom="1.979899"
     inkscape:cx="69.12683"
     inkscape:cy="69.830528"
     inkscape:document-units="mm"
     inkscape:current-layer="layer1"
     showgrid="false"
     fit-margin-top="0"
     fit-margin-left="0"
     fit-margin-right="0"
     fit-margin-bottom="0"
     inkscape:window-width="1920"
     inkscape:window-height="1060"
     inkscape:window-x="1920"
     inkscape:window-y="0"
     inkscape:window-maximized="1" />
  <metadata
     id="metadata3843">
    <rdf:RDF>
      <cc:Work
         rdf:about="">
        <dc:format>image/svg+xml</dc:format>
        <dc:type
           rdf:resource="http://purl.org/dc/dcmitype/StillImage" />
        <dc:title></dc:title>
      </cc:Work>
    </rdf:RDF>
  </metadata>
  <g
     inkscape:label="Layer 1"
     inkscape:groupmode="layer"
     id="layer1"
     transform="translate(0,-246.59305)">
    <path
       style="color:#000000;font-style:normal;font-variant:normal;font-weight:normal;font-stretch:normal;font-size:medium;line-height:normal;font-family:sans-serif;font-variant-ligatures:normal;font-variant-position:normal;font-variant-caps:normal;font-variant-numeric:normal;font-variant-alternates:normal;font-feature-settings:normal;text-indent:0;text-align:start;text-decoration:none;text-decoration-line:none;text-decoration-style:solid;text-decoration-color:#000000;letter-spacing:normal;word-spacing:normal;text-transform:none;writing-mode:lr-tb;direction:ltr;text-orientation:mixed;dominant-baseline:auto;baseline-shift:baseline;text-anchor:start;white-space:normal;shape-padding:0;clip-rule:nonzero;display:inline;overflow:visible;visibility:visible;opacity:1;isolation:auto;mix-blend-mode:normal;color-interpolation:sRGB;color-interpolation-filters:linearRGB;solid-color:#000000;solid-opacity:1;vector-effect:none;fill:#000000;fill-opacity:1;fill-rule:nonzero;stroke:none;stroke-width:1.59895861;stroke-linecap:butt;stroke-linejoin:miter;stroke-miterlimit:4;stroke-dasharray:none;stroke-dashoffset:0;stroke-opacity:1;color-rendering:auto;image-rendering:auto;shape-rendering:auto;text-rendering:auto;enable-background:accumulate"
       d="m 27.879628,246.62933 c -0.47082,-0.10728 -0.95233,0.0345 -1.31945,0.27911 -0.73425,0.48919 -1.22827,1.33778 -1.64151,2.48081 -0.82647,2.28605 -1.18883,5.83502 -0.36304,10.17501 0.0896,0.4712 0.33327,0.96306 0.45087,1.44046 -0.38598,0.75936 -0.9552,1.50298 -1.42094,2.26221 -0.40867,-0.39337 -0.90432,-0.73712 -1.28823,-1.13794 -0.36499,-0.38106 -0.58492,-0.76079 -0.92518,-1.14573 -0.0268,-3.06227 -0.28595,-5.94329 -1.04424,-8.10605 -0.54866,-1.56486 -1.20702,-2.72744 -1.91672,-3.52505 -0.7097,-0.79761 -1.50351,-1.29676 -2.38517,-1.2082 -0.44082,0.0443 -0.86591,0.27277 -1.1555,0.60508 -0.28958,0.33231 -0.46282,0.74667 -0.55627,1.21015 -0.18689,0.92695 -0.0734,2.08343 0.365,3.50943 0.73559,2.39308 2.6447,5.21163 5.03773,8.00846 -0.01,1.12888 0.0468,2.20213 -0.0625,3.39232 -0.89786,-0.26249 -1.71414,-0.584 -2.53936,-0.90761 -2.05632,-3.78952 -4.53974,-6.53034 -6.69486,-8.04945 -1.1315904,-0.79764 -2.1528204,-1.29237 -3.0702704,-1.44437 -0.45872,-0.076 -0.9111,-0.0705 -1.34091,0.12101 -0.42982,0.19144 -0.78109,0.62297 -0.89005,1.08914 -0.22567,0.96536 0.24157,1.85769 0.95445,2.82823 0.71289,0.97055 1.7689,2.01834 3.12883,3.06636 1.7638404,1.35932 4.1823104,2.60746 6.8549004,3.70267 0.38139,0.74757 0.59894,1.64838 0.92128,2.45934 -1.03195,0.2416 -2.02465,0.49604 -3.01756,0.64411 -0.57597,-0.37197 -1.14829,-0.87232 -1.71763,-1.19844 -3.6975704,-2.11789 -7.1112304,-3.29067 -9.4977304,-3.15419 -1.15982,0.0663 -2.07751998,0.37121 -2.53350998,1.16721 -0.22799,0.398 -0.26434,0.8907 -0.14638,1.31164 0.11795,0.42095 0.35962,0.7887 0.67924,1.12818 1.27846998,1.3579 3.90343998,2.44827 7.82107998,2.70136 1.5213204,0.0982 3.2478804,-0.10049 4.9694104,-0.31035 0.85227,0.56839 1.69933,1.10442 2.53937,1.77229 -0.84004,0.66786 -1.6871,1.2039 -2.53937,1.77228 -1.72153,-0.20985 -3.44809,-0.40862 -4.9694104,-0.31035 -3.91764,0.25309 -6.54261,1.34347 -7.82107998,2.70137 -0.31962,0.33947 -0.56129,0.70722 -0.67924,1.12817 -0.11796,0.42096 -0.0816,0.91364 0.14638,1.31164 0.456,0.79602 1.37368998,1.10089 2.53350998,1.16721 2.38651,0.1365 5.80016,-1.03824 9.4977304,-3.15614 0.56871,-0.32575 1.14036,-0.82499 1.71567,-1.19649 0.99362,0.14812 1.98681,0.40234 3.01952,0.64412 -0.32253,0.81136 -0.54159,1.71145 -0.92323,2.45933 -2.67188,1.09511 -5.08948,2.34363 -6.8529504,3.70267 -1.35993,1.04803 -2.41594,2.09581 -3.12883,3.06636 -0.71288,0.97055 -1.18011,1.86093 -0.95445,2.82629 0.10896,0.46617 0.46023,0.89964 0.89005,1.09108 0.42981,0.19143 0.8822,0.19507 1.34091,0.11906 0.91745,-0.152 1.93868,-0.64673 3.0702704,-1.44437 2.15591,-1.51966 4.64007,-4.25966 6.69681,-8.05139 0.82453,-0.32327 1.64039,-0.64342 2.53741,-0.90566 0.10926,1.1902 0.0527,2.26338 0.0625,3.39232 -2.39337,2.79707 -4.30208,5.61709 -5.03773,8.01041 -0.43833,1.42602 -0.55189,2.58247 -0.365,3.50942 0.0934,0.46349 0.26669,0.87784 0.55627,1.21015 0.28959,0.33232 0.71467,0.5608 1.1555,0.60508 0.88167,0.0885 1.67547,-0.41252 2.38517,-1.21015 0.7097,-0.79762 1.36806,-1.95821 1.91672,-3.5231 0.75829,-2.16276 1.01746,-5.04378 1.04424,-8.10604 0.34026,-0.38494 0.56019,-0.76468 0.92518,-1.14574 0.38391,-0.40082 0.87956,-0.74456 1.28823,-1.13793 0.46574,0.75924 1.03496,1.50284 1.42094,2.2622 -0.1176,0.47742 -0.36122,0.96928 -0.45087,1.44047 -0.82579,4.33998 -0.46343,7.88896 0.36304,10.17501 0.41324,1.14303 0.90726,1.99161 1.64151,2.48081 0.36712,0.24459 0.84863,0.38638 1.31945,0.27911 0.47082,-0.10727 0.84518,-0.43169 1.10866,-0.82368 0.5508,-0.81949 0.69516,-1.92123 0.66363,-3.29278 -0.0316,-1.37154 -0.2863,-3.01284 -0.77489,-4.81718 -0.47589,-1.75741 -1.19508,-3.67388 -2.14118,-5.62134 0.243,-0.89163 0.51933,-1.78374 0.85881,-2.6916 0.9788,0.51929 1.73394,1.13052 2.60768,1.70593 0.37161,1.28667 0.6943,2.64564 1.15744,3.76902 1.53074,3.71279 3.32083,6.41962 5.19194,7.43461 0.4505,0.24438 0.8924,0.39196 1.35068,0.38647 0.45827,-0.005 0.93375,-0.21423 1.23162,-0.56214 0.59572,-0.6958 0.5784,-1.62277 0.33572,-2.65257 -0.48537,-2.05959 -2.13587,-4.81888 -5.27977,-7.58685 -0.74826,-0.6588 -1.75639,-1.19989 -2.63304,-1.80742 -0.255,-0.94682 -0.47828,-1.85335 -0.65973,-2.86531 1.00564,0.0496 2.03082,0.0508 2.98829,0.16981 1.64014,1.86575 3.33266,3.49243 5.01235,4.61222 1.51151,1.00767 2.88475,1.63316 4.06572,1.9499 1.18097,0.31675 2.17138,0.35259 2.97853,0.0234 0.40356,-0.16459 0.76895,-0.44651 0.98373,-0.84321 0.21479,-0.39669 0.25163,-0.87222 0.14834,-1.30578 -0.20658,-0.86714 -0.85766,-1.64614 -1.90891,-2.44958 -2.14711,-1.64096 -5.88436,-2.89281 -10.30969,-3.527 -0.0284,-0.004 -0.0614,-0.002 -0.0897,-0.006 -0.6558,-0.77951 -1.27732,-1.64411 -1.90306,-2.51594 0.19173,-0.0934 0.36571,-0.24736 0.55822,-0.33571 0.70307,-0.32268 1.33607,-0.422 2.02407,-0.67534 3.2975,1.14362 6.43602,1.77986 8.87313,1.743 1.55366,-0.0235 2.84878,-0.22694 3.83149,-0.59532 0.49136,-0.18418 0.90977,-0.40674 1.24724,-0.71828 0.33747,-0.31153 0.60312,-0.76238 0.60312,-1.2687 0,-0.50632 -0.26565,-0.95717 -0.60312,-1.26871 -0.33747,-0.31153 -0.75588,-0.53409 -1.24724,-0.71828 -0.98271,-0.36838 -2.27783,-0.57377 -3.83149,-0.59727 -2.43711,-0.0369 -5.57563,0.60133 -8.87313,1.74496 -0.688,-0.25334 -1.321,-0.35266 -2.02407,-0.67534 -0.19251,-0.0883 -0.36649,-0.24231 -0.55822,-0.33572 0.62605,-0.87226 1.24693,-1.73805 1.90306,-2.51789 0.0284,-0.004 0.0615,-0.002 0.0897,-0.006 4.42533,-0.63418 8.16258,-1.88407 10.30969,-3.52504 1.05125,-0.80344 1.70233,-1.58245 1.90891,-2.44958 0.10329,-0.43357 0.0665,-0.9091 -0.14834,-1.30579 -0.21478,-0.39669 -0.58017,-0.67862 -0.98373,-0.8432 -0.80715,-0.32917 -1.79756,-0.29332 -2.97853,0.0234 -1.18097,0.31674 -2.55421,0.94224 -4.06572,1.9499 -1.67969,1.11979 -3.37221,2.74647 -5.01235,4.61224 -0.95747,0.11906 -1.98265,0.12022 -2.98829,0.16981 0.18141,-1.01205 0.40475,-1.91841 0.65973,-2.86533 0.87682,-0.60762 1.88465,-1.15045 2.63304,-1.80937 3.1439,-2.76799 4.7944,-5.52531 5.27977,-7.5849 0.24268,-1.02979 0.26001,-1.95871 -0.33572,-2.65452 -0.29787,-0.3479 -0.77335,-0.55469 -1.23162,-0.56018 -0.45828,-0.005 -0.90018,0.14209 -1.35068,0.38646 -1.87112,1.01498 -3.6612,3.71986 -5.19194,7.43266 -0.46301,1.12306 -0.7859,2.48277 -1.15744,3.76904 -0.87389,0.57552 -1.62868,1.18846 -2.60768,1.70786 -0.33961,-0.9081 -0.61572,-1.79971 -0.85881,-2.6916 0.9461,-1.94745 1.66529,-3.86393 2.14118,-5.62134 0.48859,-1.80434 0.74336,-3.44563 0.77489,-4.81717 0.0315,-1.37155 -0.11284,-2.47525 -0.66363,-3.29473 -0.26348,-0.392 -0.63784,-0.71446 -1.10866,-0.82173 z m -0.35524,1.55953 c -0.0218,-0.005 0.0286,-0.01 0.13858,0.15419 0.19612,0.29179 0.418,1.16394 0.39038,2.36565 -0.0276,1.20171 -0.2575,2.733 -0.71828,4.43461 -0.27968,1.03283 -0.81553,2.19944 -1.26871,3.32791 -0.57062,-3.6903 -0.28656,-6.75871 0.35719,-8.53935 0.34701,-0.95986 0.80644,-1.54814 1.02277,-1.69226 0.10816,-0.0721 0.0999,-0.0458 0.0781,-0.0507 z m -11.33831,1.54587 c 0.0953,-0.01 0.51232,0.0987 1.03058,0.68119 0.51825,0.58245 1.10359,1.57294 1.60051,2.99024 0.52112,1.48632 0.81858,3.43044 0.9447,5.58621 -1.67429,-2.19084 -3.04093,-4.32395 -3.55433,-5.99414 -0.38632,-1.25684 -0.4319,-2.19735 -0.32595,-2.72284 0.053,-0.26275 0.14021,-0.41318 0.19518,-0.47626 0.055,-0.0631 0.0617,-0.0597 0.10931,-0.0644 z m 21.69681,2.44371 c 0.0768,9.2e-4 0.0269,-0.01 0.0371,0.002 0.0204,0.0238 0.17749,0.46927 -0.006,1.24723 -0.36669,1.55595 -1.82961,4.15376 -4.7801,6.75146 -0.22997,0.20248 -0.58133,0.36386 -0.82758,0.56214 0.1945,-0.55408 0.31906,-1.21748 0.5309,-1.7313 1.45536,-3.52999 3.3903,-6.04848 4.47756,-6.63825 0.28908,-0.15682 0.49126,-0.19416 0.56799,-0.19324 z m -30.7944104,3.86858 c 0.51885,0.0859 1.40708,0.46574 2.41054,1.17306 1.5544804,1.09573 3.3662304,3.17361 5.0553104,5.75602 -1.67976,-0.83758 -3.18544,-1.75259 -4.37606,-2.67013 -1.2671104,-0.97651 -2.2281404,-1.94521 -2.8165204,-2.74626 -0.58622,-0.79809 -0.70279,-1.42674 -0.68511,-1.51074 0.0303,-0.011 0.16304,-0.0432 0.41184,-0.002 z m 38.2504804,4.73129 c 0.14268,0.0582 0.17153,0.10646 0.18152,0.12492 0.01,0.0185 0.0295,0.0419 -0.002,0.17372 -0.0629,0.2637 -0.43918,0.87403 -1.32336,1.54977 -1.41014,1.07773 -4.23385,2.04428 -7.48145,2.72674 1.03271,-1.02591 2.07392,-2.08658 3.07222,-2.75212 1.39238,-0.92825 2.62213,-1.47522 3.59141,-1.73519 0.96929,-0.25998 1.67627,-0.20421 1.96161,-0.0879 z m -19.70786,2.22316 c 0.16242,0.51032 0.28717,1.01324 0.47625,1.5244 -0.23953,0.11514 -0.49257,0.20875 -0.73585,0.3201 -0.19729,-0.16945 -0.38654,-0.33915 -0.5797,-0.51137 0.27935,-0.44684 0.58677,-0.88464 0.8393,-1.33313 z m -4.29604,0.40208 c 0.41875,0.43223 0.94412,0.80856 1.38973,1.23163 -0.19549,0.28496 -0.33132,0.57702 -0.53871,0.85881 -0.2951,-0.0582 -0.60388,-0.0484 -0.89591,-0.11515 0.0693,-0.68796 0.009,-1.30035 0.0449,-1.97529 z m 8.11191,1.23553 c -0.10023,0.47565 -0.0795,1.01635 -0.162,1.50488 -0.28029,0.002 -0.53799,0.0506 -0.81978,0.0469 -0.11674,-0.2575 -0.26239,-0.4973 -0.37281,-0.75537 0.48017,-0.25391 0.89389,-0.52739 1.35459,-0.79636 z m -26.6096204,0.98374 c 1.71376,-0.098 5.05374,0.91787 8.5744904,2.92778 -0.91203,0.0537 -1.9218404,0.24038 -2.7423604,0.18738 -3.64915,-0.23575 -5.99181,-1.38254 -6.76121,-2.19975 -0.19236,-0.2043 -0.28024,-0.37797 -0.30449,-0.46454 -0.0243,-0.0865 -0.0154,-0.0694 -0.006,-0.0858 0.019,-0.0332 0.34589,-0.31389 1.23943,-0.36499 z m 15.1873704,0.35524 c 0.47112,0.15832 0.89099,0.35208 1.38191,0.49186 -0.0283,0.22039 -0.0854,0.43881 -0.1171,0.65973 -0.2525,0.0739 -0.4993,0.12606 -0.75147,0.19518 -0.17712,-0.44689 -0.31926,-0.91387 -0.51334,-1.34677 z m 5.81262,1.33116 c 0.74827,0.10244 1.48648,0.23308 2.23683,0.28887 0.64048,0.49154 1.32084,0.87128 1.99089,1.32336 0.25132,0.48958 0.50159,0.97197 0.77098,1.45217 -0.0219,0.4872 -0.15224,0.93018 -0.15224,1.42291 0,0.49272 0.1304,0.93572 0.15224,1.4229 -0.26939,0.48022 -0.51966,0.96259 -0.77098,1.45218 -0.67005,0.45207 -1.35041,0.83181 -1.99089,1.32335 -0.74962,0.0558 -1.48733,0.18463 -2.23488,0.28692 -0.55215,-0.21988 -1.05569,-0.51405 -1.61613,-0.71242 -0.54238,-0.64525 -1.16008,-1.18429 -1.74301,-1.78204 -0.13634,-0.66535 -0.19693,-1.33286 -0.36499,-1.99089 0.16813,-0.6582 0.22859,-1.32537 0.36499,-1.99089 0.58422,-0.59908 1.20344,-1.13917 1.74691,-1.78594 0.55854,-0.19776 1.05999,-0.49134 1.61028,-0.71048 z m 8.77945,0.24203 c -0.39825,0.50483 -0.79194,1.00521 -1.17503,1.54001 -0.27703,-0.15432 -0.54362,-0.32837 -0.81783,-0.49187 0.0326,-0.31563 0.0604,-0.62894 0.10151,-0.94079 0.63791,-0.028 1.26933,-0.0517 1.89135,-0.10735 z m -15.06051,1.72348 c 0.10431,0.30717 0.23913,0.58536 0.33572,0.89785 -0.19286,0.1756 -0.35496,0.3917 -0.55043,0.56214 -0.48452,-0.39208 -0.98019,-0.66407 -1.4717,-1.02473 0.5569,-0.10609 1.12333,-0.30305 1.68641,-0.43526 z m 26.73844,1.53807 c 1.42078,0.0215 2.57373,0.22354 3.29473,0.49381 0.3605,0.13514 0.60862,0.28959 0.72414,0.39623 0.11552,0.10664 0.0878,0.11602 0.0878,0.0936 0,-0.0224 0.0277,-0.013 -0.0878,0.0936 -0.11551,0.10665 -0.36364,0.26109 -0.72414,0.39624 -0.721,0.27026 -1.87395,0.47233 -3.29473,0.49382 -1.7511,0.0265 -3.9743,-0.35513 -6.33767,-0.98374 2.36337,-0.62861 4.58657,-1.01022 6.33767,-0.98373 z m -12.39818,0.40793 c 0.29568,0.14772 0.5584,0.3783 0.85687,0.5153 0.063,0.0289 0.11868,0.0322 0.18152,0.0605 -0.0629,0.0284 -0.11858,0.0316 -0.18152,0.0605 -0.29847,0.13698 -0.56119,0.36756 -0.85687,0.51528 -0.13767,-0.2075 -0.29833,-0.36496 -0.4333,-0.57579 0.13497,-0.21084 0.29563,-0.36829 0.4333,-0.5758 z m -14.55497,1.6376 c 0.19547,0.17044 0.35757,0.38655 0.55043,0.56214 -0.0966,0.31257 -0.23138,0.59061 -0.33572,0.89785 -0.56312,-0.13222 -1.12947,-0.32915 -1.68641,-0.43526 0.49159,-0.3607 0.98709,-0.63258 1.4717,-1.02473 z m 14.10019,1.64346 c 0.38286,0.53449 0.77507,1.03547 1.17307,1.54002 -0.62144,-0.0556 -1.25209,-0.0814 -1.88939,-0.10931 -0.0411,-0.3113 -0.069,-0.62377 -0.10151,-0.93884 0.27421,-0.1635 0.5408,-0.33754 0.81783,-0.49187 z m -22.7722804,0.35134 c 0.82108,-0.0531 1.8316104,0.13359 2.7443204,0.18738 -3.5216804,2.01085 -6.8622904,3.02777 -8.5764504,2.92973 -0.89354,-0.0511 -1.22044,-0.33381 -1.23943,-0.36695 -0.01,-0.0166 -0.0184,0.003 0.006,-0.0839 0.0243,-0.0866 0.11213,-0.26024 0.30449,-0.46454 0.7694,-0.8172 3.11206,-1.96596 6.76121,-2.20169 z m 9.8685804,1.41314 c 0.25235,0.0692 0.49879,0.12309 0.75147,0.19714 0.0317,0.22091 0.0888,0.43933 0.1171,0.65973 -0.49092,0.13978 -0.91079,0.33353 -1.38191,0.49187 0.19428,-0.43334 0.33606,-0.90138 0.51334,-1.34874 z m 9.92713,1.13598 c 0.28179,-0.004 0.53949,0.0446 0.81978,0.0469 0.0824,0.48855 0.0618,1.02924 0.162,1.50488 -0.46073,-0.26899 -0.87439,-0.54242 -1.35459,-0.79635 0.11045,-0.25819 0.25603,-0.49776 0.37281,-0.75537 z m -6.28107,0.69486 c 0.20799,0.28253 0.34467,0.57505 0.54067,0.86077 -0.44561,0.42308 -0.97098,0.7994 -1.38973,1.23162 -0.0356,-0.67554 0.0245,-1.28865 -0.0449,-1.97723 0.29142,-0.0667 0.59948,-0.0571 0.89395,-0.11516 z m 14.5296,0.14249 c 3.24752,0.68245 6.07134,1.64903 7.48145,2.72673 0.88418,0.67575 1.26054,1.28608 1.32336,1.54977 0.0314,0.13186 0.012,0.15526 0.002,0.17372 -0.01,0.0185 -0.0389,0.0668 -0.18152,0.12492 -0.28534,0.11637 -0.99232,0.17214 -1.96161,-0.0878 -0.96928,-0.25997 -2.19903,-0.8089 -3.59141,-1.73715 -0.99821,-0.66548 -2.0396,-1.72437 -3.07222,-2.75016 z m -11.34222,0.50748 c 0.24325,0.11136 0.49635,0.20499 0.73585,0.3201 -0.18908,0.51117 -0.31383,1.01409 -0.47625,1.5244 -0.25252,-0.44849 -0.55996,-0.88629 -0.8393,-1.33311 0.19316,-0.17223 0.38241,-0.34193 0.5797,-0.51139 z m -10.81522,1.86792 c -1.68934,2.58322 -3.50247,4.66204 -5.0572604,5.75797 -1.00346,0.70733 -1.89168,1.0871 -2.41054,1.17307 -0.2488,0.0412 -0.3816,0.009 -0.41184,-0.002 -0.0177,-0.084 0.0989,-0.71265 0.68511,-1.51074 0.58838,-0.80105 1.54941,-1.76975 2.8165204,-2.74626 1.19101,-0.91786 2.69753,-1.83428 4.37801,-2.67209 z m 17.75016,2.23488 c 0.24629,0.19831 0.59757,0.35962 0.82758,0.56213 2.95049,2.59768 4.41341,5.19748 4.7801,6.75341 0.18334,0.77797 0.0262,1.22347 0.006,1.24724 -0.0102,0.0119 0.0397,10e-4 -0.0371,0.002 -0.0768,9.2e-4 -0.27891,-0.0364 -0.56799,-0.19324 -1.08727,-0.58978 -3.0222,-3.10826 -4.47756,-6.63825 -0.21199,-0.51419 -0.33627,-1.17872 -0.5309,-1.73324 z m -12.54457,1.75081 c -0.12612,2.15577 -0.42358,4.09989 -0.9447,5.58621 -0.49692,1.41732 -1.08226,2.40777 -1.60051,2.99023 -0.51826,0.58246 -0.93521,0.69078 -1.03058,0.6812 -0.0477,-0.005 -0.0544,-0.001 -0.10931,-0.0644 -0.055,-0.0631 -0.14221,-0.2135 -0.19518,-0.47625 -0.10596,-0.52551 -0.0604,-1.46793 0.32595,-2.72479 0.5134,-1.67021 1.88004,-3.80135 3.55433,-5.99219 z m 6.30449,0.52115 c 0.45306,1.12823 0.98908,2.29333 1.26871,3.32595 0.46078,1.70161 0.69065,3.23485 0.71828,4.43656 0.0276,1.20172 -0.19426,2.07192 -0.39038,2.3637 -0.10998,0.16363 -0.1604,0.16112 -0.13858,0.15615 0.0218,-0.005 0.0301,0.0213 -0.0781,-0.0508 -0.21633,-0.14412 -0.67576,-0.7324 -1.02277,-1.69226 -0.64374,-1.78059 -0.92774,-4.84919 -0.35719,-8.53935 z"
       id="path1059"
       inkscape:connector-curvature="0" />
  </g>
</svg>
