<?xml version="1.0" encoding="UTF-8" standalone="no"?>
<!-- Created with Inkscape (http://www.inkscape.org/) -->

<svg
   xmlns:dc="http://purl.org/dc/elements/1.1/"
   xmlns:cc="http://creativecommons.org/ns#"
   xmlns:rdf="http://www.w3.org/1999/02/22-rdf-syntax-ns#"
   xmlns:svg="http://www.w3.org/2000/svg"
   xmlns="http://www.w3.org/2000/svg"
   xmlns:sodipodi="http://sodipodi.sourceforge.net/DTD/sodipodi-0.dtd"
   xmlns:inkscape="http://www.inkscape.org/namespaces/inkscape"
   width="50mm"
   height="50.803001mm"
   viewBox="0 0 50 50.803001"
   version="1.1"
   id="svg5625"
   inkscape:version="0.92.3 (2405546, 2018-03-11)"
   sodipodi:docname="snow-flake-06.svg">
  <defs
     id="defs5619" />
  <sodipodi:namedview
     id="base"
     pagecolor="#ffffff"
     bordercolor="#666666"
     borderopacity="1.0"
     inkscape:pageopacity="0.0"
     inkscape:pageshadow="2"
     inkscape:zoom="0.24748737"
     inkscape:cx="625.95568"
     inkscape:cy="483.93446"
     inkscape:document-units="mm"
     inkscape:current-layer="layer1"
     showgrid="false"
     fit-margin-top="0"
     fit-margin-left="0"
     fit-margin-right="0"
     fit-margin-bottom="0"
     inkscape:window-width="1920"
     inkscape:window-height="1060"
     inkscape:window-x="1920"
     inkscape:window-y="0"
     inkscape:window-maximized="1" />
  <metadata
     id="metadata5622">
    <rdf:RDF>
      <cc:Work
         rdf:about="">
        <dc:format>image/svg+xml</dc:format>
        <dc:type
           rdf:resource="http://purl.org/dc/dcmitype/StillImage" />
        <dc:title></dc:title>
      </cc:Work>
    </rdf:RDF>
  </metadata>
  <g
     inkscape:label="Layer 1"
     inkscape:groupmode="layer"
     id="layer1"
     transform="translate(0,-246.197)">
    <path
       style="color:#000000;font-style:normal;font-variant:normal;font-weight:normal;font-stretch:normal;font-size:medium;line-height:normal;font-family:sans-serif;font-variant-ligatures:normal;font-variant-position:normal;font-variant-caps:normal;font-variant-numeric:normal;font-variant-alternates:normal;font-feature-settings:normal;text-indent:0;text-align:start;text-decoration:none;text-decoration-line:none;text-decoration-style:solid;text-decoration-color:#000000;letter-spacing:normal;word-spacing:normal;text-transform:none;writing-mode:lr-tb;direction:ltr;text-orientation:mixed;dominant-baseline:auto;baseline-shift:baseline;text-anchor:start;white-space:normal;shape-padding:0;clip-rule:nonzero;display:inline;overflow:visible;visibility:visible;opacity:1;isolation:auto;mix-blend-mode:normal;color-interpolation:sRGB;color-interpolation-filters:linearRGB;solid-color:#000000;solid-opacity:1;vector-effect:none;fill:#000000;fill-opacity:1;fill-rule:nonzero;stroke:none;stroke-width:1.57677341;stroke-linecap:butt;stroke-linejoin:miter;stroke-miterlimit:4;stroke-dasharray:none;stroke-dashoffset:0;stroke-opacity:1;color-rendering:auto;image-rendering:auto;shape-rendering:auto;text-rendering:auto;enable-background:accumulate"
       d="m 28.767233,246.22062 c -0.313015,-0.0505 -0.636116,-0.0195 -0.916031,0.0879 -0.559829,0.21486 -1.030396,0.6118 -1.43557,1.15626 -0.405174,0.54447 -0.745349,1.23657 -1.041032,2.0352 -0.295683,0.79861 -0.527967,1.72046 -0.660167,2.73832 -0.132201,1.01786 -0.162775,2.13089 -0.05859,3.31256 0.04326,0.49063 0.221557,1.03282 0.314458,1.54494 -0.672163,0.79238 -1.358734,1.58826 -2.152379,2.3516 -0.583976,0.56168 -1.250462,1.06227 -1.886749,1.58792 -0.974227,-0.3135 -1.953434,-0.62413 -2.837937,-1.1133 -0.353627,-0.19558 -0.568468,-0.42042 -0.886733,-0.62501 0.0156,-0.38825 0.09111,-0.80631 0.08789,-1.18361 -0.01148,-1.34675 -0.145756,-2.61672 -0.419929,-3.76764 -0.274172,-1.15094 -0.688959,-2.18199 -1.261739,-3.04888 -0.544722,-0.82445 -1.091107,-1.42078 -1.660183,-1.81644 -0.569077,-0.39566 -1.193174,-0.59693 -1.80081,-0.49805 -0.607637,0.0989 -1.111106,0.50951 -1.408226,1.0176 -0.297121,0.50807 -0.434734,1.11672 -0.449227,1.79298 -0.01449,0.67627 0.09517,1.43002 0.347662,2.22465 0.252491,0.79463 0.647471,1.63009 1.207051,2.47075 0.55958,0.84065 1.282715,1.68764 2.189488,2.50199 0.408983,0.3673 0.99887,0.69172 1.484399,1.04299 -0.04351,0.69348 -0.03787,1.35542 -0.13672,2.07815 -0.127028,0.92876 -0.364974,1.88179 -0.582041,2.83013 -0.881463,0.40552 -1.763495,0.83124 -2.64848,1.09377 -0.350867,0.10408 -0.688155,0.0912 -1.037126,0.16992 -0.355725,-0.46158 -0.667239,-0.99725 -1.050799,-1.40627 -0.9076891,-0.96796 -1.8938781,-1.77865 -2.9512201,-2.38285 -1.02528,-0.58587 -1.954488,-0.96851 -2.791061,-1.17189 -0.836573,-0.20339 -1.579224,-0.22699 -2.228552,-0.0918 -0.649327,0.13517 -1.19212704,0.48048 -1.56252504,0.93946 -0.370398,0.45899 -0.569239,1.03091 -0.529306,1.62113 0.03993,0.59021 0.265478,1.17253 0.658214,1.71096 0.39273604,0.53843 0.95188404,1.0333 1.65823004,1.45315 0.706346,0.41985 1.568255,0.76776 2.589886,1.00392 1.021631,0.23615 2.203621,0.36155 3.552793,0.33985 0.641645,-0.0103 1.285431,-0.20899 1.9297181,-0.30664 0.255563,0.36794 0.541742,0.66013 0.783216,1.05665 0.492037,0.80798 0.908682,1.72531 1.334007,2.627 -0.425533,0.90226 -0.84168,1.8205 -1.334007,2.62895 -0.241186,0.39605 -0.527974,0.68716 -0.783216,1.0547 -0.6442341,-0.0976 -1.2881261,-0.29437 -1.9297181,-0.30469 -1.349172,-0.0217 -2.531161,0.1037 -3.552793,0.33985 -1.021632,0.23614 -1.883539,0.58408 -2.589886,1.00392 -0.706347,0.41984 -1.265494,0.91472 -1.65823004,1.45315 -0.392737,0.53843 -0.61828,1.1188 -0.658214,1.70902 -0.03993,0.59021 0.158909,1.16408 0.529306,1.62306 0.370397,0.45899 0.91319704,0.80429 1.56252504,0.93948 0.649329,0.13517 1.391978,0.11158 2.228552,-0.0918 0.836574,-0.20339 1.76578,-0.58797 2.791061,-1.17385 1.057343,-0.60419 2.041577,-1.41295 2.9492671,-2.3809 0.384049,-0.40955 0.696609,-0.94599 1.052752,-1.40823 0.349,0.0787 0.68623,0.0658 1.037126,0.16993 0.884823,0.26247 1.767176,0.68835 2.64848,1.09377 0.21727,0.94896 0.454929,1.90272 0.582041,2.83207 0.0989,0.72309 0.09322,1.38436 0.13672,2.07816 -0.485529,0.35127 -1.075416,0.6757 -1.484399,1.04299 -0.906773,0.81435 -1.629908,1.66133 -2.189488,2.50199 -0.55958,0.84067 -0.95456,1.67612 -1.207051,2.47074 -0.252491,0.79464 -0.362155,1.54839 -0.347662,2.22465 0.01449,0.67626 0.152105,1.28492 0.449227,1.793 0.297121,0.50808 0.80059,0.91872 1.408226,1.01759 0.607636,0.0989 1.231734,-0.1024 1.80081,-0.49805 0.569076,-0.39566 1.115461,-0.992 1.660183,-1.81643 0.572781,-0.86691 0.987567,-1.89795 1.261739,-3.04888 0.274173,-1.15094 0.408447,-2.4209 0.419929,-3.76764 0.0032,-0.37731 -0.07229,-0.79538 -0.08789,-1.18361 0.318473,-0.20476 0.532847,-0.43125 0.886733,-0.62697 0.883976,-0.48889 1.862381,-0.79989 2.835983,-1.1133 0.637049,0.52619 1.304075,1.02757 1.888703,1.58987 0.793925,0.76362 1.480026,1.55893 2.152379,2.3516 -0.0929,0.51212 -0.271201,1.05431 -0.314458,1.54495 -0.10418,1.18166 -0.07361,2.29469 0.05859,3.31255 0.1322,1.01786 0.364484,1.9397 0.660167,2.73833 0.295683,0.79862 0.635858,1.48877 1.041032,2.03323 0.405174,0.54447 0.87574,0.94335 1.43557,1.15823 0.559831,0.21486 1.294986,0.11901 1.771514,-0.30861 0.476528,-0.4276 0.729921,-1.04338 0.880873,-1.8301 0.163542,-0.85233 0.08142,-1.77262 -0.189456,-2.74223 -0.27088,-0.96963 -0.731251,-1.98876 -1.32424,-3.03716 -0.59299,-1.0484 -1.329791,-2.1257 -2.185583,-3.19732 -0.03975,-0.0498 -0.09451,-0.0967 -0.134767,-0.14648 0.09544,-0.41062 0.111179,-0.78993 0.246097,-1.21291 0.331527,-1.0394 0.845581,-2.12064 1.451195,-3.20905 0.597231,0.0196 1.200208,-0.0201 1.789093,0.0371 1.37256,0.13328 2.714111,0.36306 3.980533,0.66798 0.110052,0.0265 0.197759,0.0681 0.306645,0.0957 0.263947,0.43233 0.489235,0.92771 0.771498,1.32229 0.701703,0.98092 1.449507,1.84275 2.199254,2.57426 0.749747,0.73151 1.495395,1.33707 2.212927,1.80276 0.717531,0.4657 1.407461,0.79159 2.048861,0.96486 0.6414,0.17327 1.284426,0.21774 1.861358,-0.10938 0.288467,-0.16355 0.505164,-0.42391 0.646496,-0.72852 0.14133,-0.30461 0.205556,-0.65407 0.191409,-0.99807 -0.03114,-0.75718 -0.363183,-1.43368 -0.908218,-2.05667 -0.545036,-0.62299 -1.301732,-1.19214 -2.17777,-1.73245 -0.876038,-0.54031 -1.903997,-1.04646 -3.046925,-1.49807 -0.84052,-0.33212 -1.798101,-0.59465 -2.748091,-0.85939 -0.249935,-0.4396 -0.533764,-0.82148 -0.755872,-1.29885 -0.51823,-1.1138 -0.950495,-2.32647 -1.253926,-3.62897 -0.01993,-0.0856 -0.01245,-0.18712 -0.03125,-0.27344 0.277231,-0.20998 0.520516,-0.47914 0.8047,-0.67383 1.103697,-0.75615 2.254277,-1.39774 3.404353,-1.92972 0.401498,-0.18573 0.788018,-0.28609 1.187519,-0.44532 0.595001,0.21967 1.202186,0.49772 1.779326,0.66407 1.179427,0.33996 2.31,0.57327 3.35357,0.70118 1.043569,0.12791 1.998984,0.15031 2.832077,0.0723 0.833094,-0.078 1.549113,-0.2492 2.132847,-0.59181 0.291868,-0.1713 0.555472,-0.4122 0.746106,-0.70118 0.190634,-0.28898 0.306646,-0.62621 0.306646,-0.98439 0,-0.35819 -0.116012,-0.69345 -0.306646,-0.98244 -0.190633,-0.28898 -0.454238,-0.52988 -0.746106,-0.70118 -0.583734,-0.34262 -1.299752,-0.51377 -2.132847,-0.59181 -0.833094,-0.078 -1.788507,-0.0556 -2.832077,0.0723 -1.04357,0.12791 -2.174143,0.36123 -3.35357,0.70118 -0.57714,0.16636 -1.184325,0.44439 -1.779326,0.66407 -0.399501,-0.15924 -0.786021,-0.2596 -1.187519,-0.44531 -1.150076,-0.53198 -2.300656,-1.17358 -3.404353,-1.92973 -0.284184,-0.19469 -0.527469,-0.46385 -0.8047,-0.67384 0.01881,-0.0864 0.01131,-0.18783 0.03125,-0.27343 0.303431,-1.30249 0.735697,-2.51711 1.253926,-3.63092 0.221716,-0.47653 0.506421,-0.85605 0.755872,-1.29495 0.950202,-0.26478 1.9074,-0.52916 2.748091,-0.86133 1.142928,-0.45161 2.170886,-0.95777 3.046925,-1.49808 0.876038,-0.54031 1.632734,-1.10946 2.17777,-1.73245 0.545036,-0.623 0.877076,-1.29949 0.908218,-2.05667 0.01415,-0.34401 -0.05008,-0.69541 -0.191409,-1.00002 -0.141332,-0.30461 -0.358029,-0.56302 -0.646496,-0.72658 -0.576932,-0.32711 -1.219958,-0.28264 -1.861358,-0.10937 -1.282801,0.34653 -2.762295,1.3046 -4.261788,2.76762 -0.749747,0.73152 -1.497552,1.59334 -2.199254,2.57427 -0.282263,0.39457 -0.507551,0.88995 -0.771498,1.32228 -0.108869,0.0276 -0.19661,0.0692 -0.306645,0.0957 -1.266421,0.30492 -2.607973,0.53471 -3.980533,0.66798 -0.588885,0.0572 -1.191862,0.0175 -1.789093,0.0371 -0.605614,-1.08841 -1.119668,-2.16964 -1.451195,-3.20903 -0.134918,-0.423 -0.150652,-0.80229 -0.246097,-1.21291 0.04025,-0.0497 0.09502,-0.0967 0.134767,-0.14649 0.855792,-1.07162 1.592593,-2.14893 2.185583,-3.19732 0.592989,-1.04839 1.05336,-2.06754 1.32424,-3.03716 0.27088,-0.96962 0.352999,-1.88991 0.189456,-2.74223 -0.150952,-0.78671 -0.404343,-1.40445 -0.880873,-1.83206 -0.238265,-0.2138 -0.542468,-0.34408 -0.855483,-0.39454 z m -0.351569,1.55862 c 0.140943,-0.0541 0.07264,-0.0617 0.152347,0.01 0.0797,0.0715 0.273578,0.36542 0.386725,0.9551 0.100558,0.52406 0.03769,1.21868 -0.18555,2.02346 -0.223244,0.80478 -0.605938,1.71908 -1.150409,2.68168 -0.366455,0.64789 -0.885732,1.33367 -1.376976,2.01175 -0.0019,-0.021 -0.01185,-0.0455 -0.01367,-0.0664 -0.0928,-1.06792 -0.06195,-2.06456 0.05469,-2.96489 0.11664,-0.90033 0.318928,-1.70385 0.570321,-2.38285 0.251394,-0.679 0.572702,-1.21817 0.865249,-1.60159 0.292547,-0.38342 0.556334,-0.61193 0.697276,-0.66603 z m -16.010025,2.75981 c 0.101354,-0.0165 0.309421,6.2e-4 0.648447,0.23634 0.339028,0.2357 0.777049,0.68367 1.244162,1.39064 0.439062,0.66452 0.769635,1.52924 0.994157,2.54106 0.224521,1.01183 0.342405,2.16993 0.357428,3.42193 2.43e-4,0.0203 -0.0041,0.0442 -0.0039,0.0644 -0.159917,-0.13275 -0.398999,-0.25064 -0.546883,-0.38477 -0.810517,-0.73514 -1.442169,-1.48626 -1.92386,-2.21488 -0.481691,-0.72862 -0.813358,-1.43508 -1.0215,-2.07621 -0.208143,-0.64112 -0.293338,-1.21681 -0.283208,-1.68947 0.01013,-0.47267 0.117001,-0.83251 0.234379,-1.03322 0.117377,-0.20072 0.19943,-0.23938 0.300786,-0.25587 z m 30.352055,5.46884 c 0.02212,0.0125 0.05629,-0.0348 0.04297,0.28907 -0.01047,0.25464 -0.206457,0.64377 -0.593759,1.08791 -0.387303,0.44413 -0.966195,0.94477 -1.746123,1.4258 -0.779927,0.48104 -1.727351,0.94631 -2.79692,1.36916 -0.268783,0.10626 -0.603326,0.17712 -0.886733,0.27736 0.565446,-0.75191 1.149375,-1.46059 1.738309,-2.0352 0.681933,-0.66534 1.366242,-1.20259 1.984408,-1.60158 0.618165,-0.399 1.171162,-0.65892 1.587917,-0.77151 0.416753,-0.11258 0.647812,-0.0536 0.669931,-0.041 z m -17.39872,2.99419 c 0.02815,0.093 0.02474,0.17609 0.05469,0.26954 0.287519,0.89708 0.781106,1.82915 1.248068,2.7559 -1.318748,-0.0428 -2.612736,-0.21338 -3.888736,-0.48243 0.370502,-0.3281 0.784944,-0.62259 1.136738,-0.96095 0.532605,-0.51227 0.965358,-1.05318 1.449242,-1.58206 z m -8.289197,2.11918 c 0.09946,0.0572 0.157791,0.12524 0.25977,0.18164 0.706028,0.39048 1.485079,0.59857 2.234411,0.88478 -0.0094,0.007 -0.01794,0.0146 -0.02734,0.0215 -0.936708,0.68761 -1.926704,1.27477 -2.91997,1.83597 0.113436,-0.56932 0.280037,-1.14468 0.363288,-1.70705 0.062,-0.41888 0.04559,-0.80428 0.08984,-1.21682 z M 2.4171949,262.6955 c 0.361616,-0.0753 0.880491,-0.0659 1.539087,0.0937 0.658598,0.15962 1.457707,0.46969 2.378945,0.99611 0.889185,0.50811 1.748195,1.22699 2.560589,2.10745 0.159281,0.17264 0.291683,0.41884 0.447273,0.60353 -0.298653,0.0274 -0.6099,0.14371 -0.904312,0.14845 -1.235691,0.0199 -2.288239,-0.0989 -3.169973,-0.30275 -0.881735,-0.20387 -1.592259,-0.49436 -2.14066,-0.82032 -0.548401,-0.32597 -0.927577,-0.68419 -1.173847,-1.0215 -0.24627,-0.33731 -0.360748,-0.65299 -0.376959,-0.89259 -0.01621,-0.23961 0.01328,-0.42906 0.136721,-0.57814 0.123441,-0.14908 0.341519,-0.25871 0.703136,-0.33399 z m 18.8167121,0.15234 c 0.08181,0.0226 0.154226,0.0721 0.236332,0.0937 1.960168,0.5158 3.99243,0.65504 6.01377,0.65235 0.745751,1.19063 1.571295,2.30384 2.507853,3.26959 0.558682,0.57609 1.198205,1.01606 1.804717,1.51564 -0.173414,1.04595 -0.367194,2.0825 -0.367194,3.21881 0,1.1365 0.193724,2.17465 0.367194,3.22075 -0.606512,0.4996 -1.246035,0.93955 -1.804717,1.51565 -0.936875,0.96608 -1.761926,2.07848 -2.507853,3.26959 -0.538372,-7.2e-4 -1.068011,-0.0675 -1.607448,-0.0352 -1.4859,0.0892 -2.968232,0.30909 -4.406322,0.68751 -0.0821,0.0216 -0.154523,0.0711 -0.236332,0.0937 -0.263,-0.20701 -0.4902,-0.44514 -0.759778,-0.64454 -1.217895,-0.90083 -2.499297,-1.71896 -3.820374,-2.41215 -0.155267,-0.0815 -0.320271,-0.11737 -0.476571,-0.19531 -0.05618,-0.21817 -0.07866,-0.43459 -0.138674,-0.65235 -0.406146,-1.47371 -0.902308,-2.93721 -1.484399,-4.33992 -0.07433,-0.17913 -0.178743,-0.33075 -0.255863,-0.50782 0.07709,-0.177 0.181561,-0.32877 0.255863,-0.50782 0.582091,-1.40271 1.078253,-2.86426 1.484399,-4.33796 0.06001,-0.21777 0.08249,-0.4342 0.138674,-0.65236 0.156326,-0.0779 0.321278,-0.11383 0.476571,-0.19532 1.321076,-0.69319 2.60248,-1.51131 3.820374,-2.41215 0.269578,-0.19939 0.496778,-0.43751 0.759778,-0.64454 z m 12.146682,0.16407 c -0.02499,0.0526 -0.05936,0.0915 -0.08398,0.14453 -0.489464,1.05392 -0.86592,2.22359 -1.181661,3.43366 -0.319986,-0.28783 -0.679376,-0.51096 -0.982438,-0.82229 -0.640367,-0.65781 -1.16038,-1.44993 -1.705105,-2.21487 0.290158,-0.0203 0.589439,0.009 0.876967,-0.0195 1.062936,-0.10554 2.069695,-0.31684 3.076222,-0.5215 z m -19.041325,3.83991 c -0.284515,0.97033 -0.622757,1.92144 -0.990251,2.85552 -0.27166,-0.52146 -0.497312,-1.0899 -0.794935,-1.58011 -0.111739,-0.18404 -0.255754,-0.31705 -0.371099,-0.49611 0.138447,-0.0368 0.277821,-0.0261 0.416022,-0.0664 0.589489,-0.17181 1.157737,-0.48265 1.740263,-0.7129 z m 18.896792,2.73832 c 0.03955,0.0275 0.07362,0.0666 0.113282,0.0937 1.098173,0.75299 2.241497,1.37196 3.382868,1.91409 -1.141655,0.54222 -2.284423,1.16287 -3.382868,1.91605 -0.03966,0.0272 -0.07373,0.0663 -0.113282,0.0937 -0.07609,-0.67154 -0.230473,-1.30123 -0.230473,-2.0098 0,-0.70822 0.154457,-1.33662 0.230473,-2.00785 z m 13.431859,1.30081 c 0.687598,0.0644 1.209061,0.2235 1.480492,0.38281 0.271433,0.15931 0.275396,0.20637 0.275396,0.32423 0,0.11784 -0.004,0.16687 -0.275396,0.32617 -0.271431,0.15931 -0.792893,0.31842 -1.480492,0.38283 -0.6876,0.0644 -1.537265,0.0421 -2.490275,-0.0742 -0.936938,-0.11432 -1.977363,-0.32562 -3.060597,-0.63478 1.083088,-0.3091 2.123776,-0.52047 3.060597,-0.63477 0.95301,-0.11629 1.802676,-0.13669 2.490275,-0.0723 z m -33.318902,2.59965 c 0.367192,0.9333 0.703944,1.88404 0.988298,2.85355 -0.581878,-0.22992 -1.149487,-0.54127 -1.73831,-0.7129 -0.137578,-0.0401 -0.276247,-0.0297 -0.414069,-0.0664 0.114787,-0.17823 0.257931,-0.31096 0.369146,-0.49415 0.297506,-0.49002 0.523371,-1.05886 0.794935,-1.5801 z m -4.9102361,3.06255 c 0.294436,0.005 0.605634,0.12106 0.904312,0.14844 -0.15559,0.18469 -0.287992,0.4309 -0.447273,0.60352 -0.812393,0.88047 -1.671405,1.59936 -2.560589,2.10745 -0.921237,0.52643 -1.720348,0.83651 -2.378945,0.99612 -0.658595,0.15961 -1.177472,0.16708 -1.539087,0.0918 -0.361616,-0.0753 -0.579694,-0.18296 -0.703136,-0.33204 -0.123442,-0.14909 -0.152933,-0.33853 -0.136721,-0.57813 0.01621,-0.23962 0.130689,-0.55529 0.376959,-0.8926 0.24627,-0.3373 0.625447,-0.69749 1.173847,-1.02345 0.5484,-0.32596 1.258926,-0.6145 2.14066,-0.81838 0.881733,-0.20387 1.934283,-0.32262 3.169973,-0.30273 z m 23.6761661,0.0547 c 0.315742,1.21007 0.692197,2.37973 1.181661,3.43364 0.02463,0.053 0.059,0.0919 0.08398,0.14454 -1.006527,-0.20467 -2.013286,-0.41596 -3.076222,-0.52149 -0.287528,-0.0285 -0.586808,7.4e-4 -0.876967,-0.0195 0.544725,-0.76495 1.064738,-1.55707 1.705105,-2.21489 0.303062,-0.31131 0.662452,-0.53446 0.982438,-0.82227 z m -15.498299,2.54496 c 0.993265,0.56119 1.983263,1.14836 2.91997,1.83597 0.0094,0.007 0.01795,0.0146 0.02734,0.0215 -0.749332,0.28621 -1.528383,0.49431 -2.234411,0.88478 -0.101979,0.0564 -0.160311,0.12443 -0.25977,0.18165 -0.04425,-0.41255 -0.02784,-0.79796 -0.08984,-1.21682 -0.08325,-0.56238 -0.249852,-1.13774 -0.363288,-1.70706 z m 9.369294,2.00393 c 0.225847,-0.0135 0.449561,0.021 0.675792,0.0137 -0.466693,0.92637 -0.960667,1.85919 -1.248068,2.75591 -0.02995,0.0934 -0.02654,0.17653 -0.05469,0.26953 -0.483884,-0.52889 -0.916637,-1.06979 -1.449242,-1.58205 -0.352444,-0.339 -0.767471,-0.63423 -1.138691,-0.96291 1.057678,-0.22312 2.123606,-0.42872 3.214897,-0.49416 z m 10.791191,1.58207 c 0.283455,0.10024 0.617908,0.17106 0.886733,0.27734 1.069569,0.42286 2.016993,0.89009 2.79692,1.37111 0.779928,0.48104 1.358821,0.98168 1.746123,1.42582 0.387301,0.44413 0.583287,0.83327 0.593759,1.08791 0.01332,0.32383 -0.02085,0.27652 -0.04297,0.28906 -0.02212,0.0125 -0.253178,0.0716 -0.669931,-0.041 -0.416755,-0.11258 -0.969751,-0.37445 -1.587917,-0.77344 -0.618166,-0.39901 -1.302475,-0.93625 -1.984408,-1.6016 -0.589217,-0.57488 -1.172616,-1.28285 -1.738309,-2.03518 z m -21.131204,2.2637 c -1.89e-4,0.0203 0.0042,0.0442 0.0039,0.0644 -0.01502,1.25201 -0.132907,2.41206 -0.357428,3.42388 -0.224522,1.01183 -0.555095,1.87654 -0.994157,2.54105 -0.467113,0.70698 -0.905134,1.15494 -1.244162,1.39066 -0.339027,0.23571 -0.547092,0.25282 -0.648447,0.23633 -0.101356,-0.0165 -0.18341,-0.0571 -0.300786,-0.25781 -0.117377,-0.20073 -0.22425,-0.55861 -0.234379,-1.03127 -0.01013,-0.47267 0.07506,-1.04837 0.283208,-1.68949 0.208142,-0.64112 0.539809,-1.34759 1.0215,-2.0762 0.481691,-0.72861 1.113343,-1.47975 1.92386,-2.21488 0.148087,-0.13432 0.386729,-0.25379 0.546883,-0.38673 z m 10.595876,2.73442 c 0.490843,0.67763 1.010764,1.36234 1.376976,2.0098 0.544471,0.96262 0.927165,1.87886 1.150409,2.68364 0.223244,0.80478 0.286108,1.49939 0.18555,2.02347 -0.113147,0.58968 -0.307021,0.88357 -0.386725,0.95509 -0.0797,0.0715 -0.01141,0.0639 -0.152347,0.01 -0.14094,-0.0541 -0.40473,-0.28261 -0.697276,-0.66602 -0.292546,-0.38341 -0.613855,-0.92259 -0.865249,-1.60158 -0.251393,-0.679 -0.453681,-1.48253 -0.570321,-2.38286 -0.116641,-0.90033 -0.147495,-1.89696 -0.05469,-2.96489 0.0018,-0.0209 0.01176,-0.0454 0.01367,-0.0664 z"
       id="path1113"
       inkscape:connector-curvature="0" />
  </g>
</svg>
