<?xml version="1.0" encoding="UTF-8" standalone="no"?>
<!-- Created with Inkscape (http://www.inkscape.org/) -->

<svg
   xmlns:dc="http://purl.org/dc/elements/1.1/"
   xmlns:cc="http://creativecommons.org/ns#"
   xmlns:rdf="http://www.w3.org/1999/02/22-rdf-syntax-ns#"
   xmlns:svg="http://www.w3.org/2000/svg"
   xmlns="http://www.w3.org/2000/svg"
   xmlns:sodipodi="http://sodipodi.sourceforge.net/DTD/sodipodi-0.dtd"
   xmlns:inkscape="http://www.inkscape.org/namespaces/inkscape"
   width="50mm"
   height="52.203262mm"
   viewBox="0 0 50 52.203262"
   version="1.1"
   id="svg5032"
   inkscape:version="0.92.3 (2405546, 2018-03-11)"
   sodipodi:docname="snow-flake-05.svg">
  <defs
     id="defs5026" />
  <sodipodi:namedview
     id="base"
     pagecolor="#ffffff"
     bordercolor="#666666"
     borderopacity="1.0"
     inkscape:pageopacity="0.0"
     inkscape:pageshadow="2"
     inkscape:zoom="1.4"
     inkscape:cx="-43.196995"
     inkscape:cy="169.92243"
     inkscape:document-units="mm"
     inkscape:current-layer="layer1"
     showgrid="false"
     fit-margin-top="0"
     fit-margin-left="0"
     fit-margin-right="0"
     fit-margin-bottom="0"
     inkscape:window-width="1920"
     inkscape:window-height="1060"
     inkscape:window-x="1920"
     inkscape:window-y="0"
     inkscape:window-maximized="1" />
  <metadata
     id="metadata5029">
    <rdf:RDF>
      <cc:Work
         rdf:about="">
        <dc:format>image/svg+xml</dc:format>
        <dc:type
           rdf:resource="http://purl.org/dc/dcmitype/StillImage" />
        <dc:title></dc:title>
      </cc:Work>
    </rdf:RDF>
  </metadata>
  <g
     inkscape:label="Layer 1"
     inkscape:groupmode="layer"
     id="layer1"
     transform="translate(0,-244.79669)">
    <path
       style="color:#000000;font-style:normal;font-variant:normal;font-weight:normal;font-stretch:normal;font-size:medium;line-height:normal;font-family:sans-serif;font-variant-ligatures:normal;font-variant-position:normal;font-variant-caps:normal;font-variant-numeric:normal;font-variant-alternates:normal;font-feature-settings:normal;text-indent:0;text-align:start;text-decoration:none;text-decoration-line:none;text-decoration-style:solid;text-decoration-color:#000000;letter-spacing:normal;word-spacing:normal;text-transform:none;writing-mode:lr-tb;direction:ltr;text-orientation:mixed;dominant-baseline:auto;baseline-shift:baseline;text-anchor:start;white-space:normal;shape-padding:0;clip-rule:nonzero;display:inline;overflow:visible;visibility:visible;opacity:1;isolation:auto;mix-blend-mode:normal;color-interpolation:sRGB;color-interpolation-filters:linearRGB;solid-color:#000000;solid-opacity:1;vector-effect:none;fill:#000000;fill-opacity:1;fill-rule:nonzero;stroke:none;stroke-width:1.94033182;stroke-linecap:butt;stroke-linejoin:miter;stroke-miterlimit:4;stroke-dasharray:none;stroke-dashoffset:0;stroke-opacity:1;color-rendering:auto;image-rendering:auto;shape-rendering:auto;text-rendering:auto;enable-background:accumulate"
       d="m 30.04149,244.82269 c -0.791198,0.13078 -1.489394,0.55791 -2.144976,1.24492 -0.655583,0.687 -1.269961,1.63367 -1.889171,2.80249 -0.621599,1.17332 -1.206234,2.58635 -1.735688,4.18384 -0.529454,1.59748 -1.003264,3.38034 -1.398403,5.29043 -0.395139,1.91009 -0.711719,3.9486 -0.930374,6.05975 -0.131716,1.27174 -0.149231,2.6006 -0.204644,3.91288 -1.087865,-1.36814 -2.191227,-2.72618 -3.338735,-3.96404 -1.430062,-1.54266 -2.8869,-2.96693 -4.322165,-4.22932 -1.435264,-1.26238 -2.849862,-2.36352 -4.1933153,-3.25915 -1.340486,-0.89366 -2.580411,-1.57933 -3.706336,-2.06539 -1.125925,-0.48607 -2.137995,-0.77237 -3.02419,-0.86595 -0.443097,-0.0468 -0.868561,-0.0515 -1.265763,0.0189 -0.397201,0.0704 -0.7656,0.21606 -1.09522603,0.46613 -0.329626,0.25008 -0.556299,0.60824 -0.680253,1.00617 -0.123955,0.39794 -0.144967,0.83606 -0.06443,1.24682 0.162868,0.83061 0.595062,1.67009 1.26008003,2.54668 0.665017,0.8766 1.56304,1.79038 2.652796,2.7646 1.089758,0.97421 2.384596,1.98162 3.861716,2.9806 1.47712,0.99899 3.1369563,1.98796 4.9550463,2.92377 1.819446,0.9365 3.773079,1.80393 5.798258,2.58458 0.419474,0.1617 0.863591,0.27407 1.288501,0.42823 -0.42491,0.15417 -0.869027,0.26655 -1.288501,0.42825 -2.025179,0.78064 -3.978811,1.64618 -5.798258,2.58268 -1.81809,0.93581 -3.4779263,1.92668 -4.9550463,2.92566 -1.477121,0.99898 -2.771958,2.00639 -3.861716,2.98061 -1.089756,0.97422 -1.987779,1.8861 -2.652796,2.7627 -0.66501803,0.87659 -1.09721203,1.71796 -1.26008003,2.54858 -0.08054,0.41076 -0.05953,0.84888 0.06443,1.24681 0.123954,0.39794 0.350627,0.75609 0.680253,1.00617 0.32962603,0.25007 0.69802503,0.39378 1.09522603,0.46424 0.397201,0.0704 0.822666,0.0676 1.265763,0.0209 0.886194,-0.0936 1.898264,-0.37989 3.02419,-0.86595 1.125925,-0.48607 2.36585,-1.17174 3.706336,-2.0654 1.3434533,-0.89563 2.7580513,-1.99677 4.1933153,-3.25915 1.435265,-1.26239 2.892103,-2.68666 4.322165,-4.22932 1.147508,-1.23785 2.250871,-2.5959 3.338735,-3.96404 0.05542,1.31228 0.07293,2.64113 0.204644,3.91288 0.218655,2.11115 0.535235,4.14966 0.930374,6.05975 0.395139,1.91009 0.868949,3.69106 1.398403,5.28854 0.529454,1.59748 1.114088,3.01052 1.735688,4.18384 0.61921,1.16882 1.233588,2.11549 1.889171,2.80249 0.655582,0.687 1.353778,1.11414 2.144976,1.24492 0.395598,0.0654 0.811049,6.3e-4 1.186179,-0.16296 0.375131,-0.16359 0.708752,-0.42542 0.941743,-0.75414 0.465983,-0.65747 0.668802,-1.49359 0.727624,-2.52206 0.05923,-1.03573 -0.04366,-2.26959 -0.301281,-3.65517 -0.257626,-1.38559 -0.670503,-2.92226 -1.231657,-4.55903 -0.561153,-1.63676 -1.270883,-3.3742 -2.122238,-5.16348 -0.851354,-1.78929 -1.844799,-3.6311 -2.973027,-5.47424 -0.449395,-0.73415 -0.990482,-1.4256 -1.476092,-2.14687 2.10128,0.5928 4.207973,1.0836 6.253022,1.45525 2.04374,0.37143 4.025058,0.62474 5.88163,0.74279 1.854145,0.1179 3.554839,0.10602 5.072528,-0.01 1.51769,-0.11548 2.853888,-0.33493 3.977301,-0.63287 1.123413,-0.29795 2.036322,-0.66735 2.739961,-1.15018 0.351819,-0.24141 0.672874,-0.53122 0.905741,-0.87163 C 49.855791,271.72978 50,271.33937 50,270.89917 c 0,-0.44019 -0.144209,-0.8306 -0.377076,-1.17102 -0.232868,-0.34042 -0.553921,-0.63022 -0.905741,-0.87163 -0.703639,-0.48283 -1.616548,-0.85413 -2.739961,-1.15207 -1.123412,-0.29795 -2.459612,-0.51739 -3.977301,-0.63289 -1.517688,-0.11549 -3.218384,-0.12547 -5.072528,-0.008 -1.856571,0.11806 -3.83789,0.36947 -5.88163,0.74089 -2.043741,0.37143 -4.14929,0.86296 -6.249233,1.45525 -0.0019,5.4e-4 -0.0038,10e-4 -0.0057,0.002 0.486012,-0.72181 1.028245,-1.41404 1.477987,-2.14876 1.128228,-1.84314 2.121673,-3.68306 2.973028,-5.47235 0.851354,-1.78929 1.561084,-3.52671 2.122238,-5.16348 0.561153,-1.63677 0.974032,-3.17344 1.231656,-4.55902 0.257624,-1.38558 0.360514,-2.62135 0.301281,-3.65707 -0.05882,-1.02848 -0.261641,-1.8627 -0.727624,-2.52016 -0.232991,-0.32873 -0.566612,-0.59245 -0.941743,-0.75604 -0.375131,-0.1636 -0.79058,-0.22836 -1.186179,-0.16296 z m 0.316441,1.91569 c 0.154265,-0.0255 0.09367,-0.0663 0.229277,0.12507 0.135604,0.19132 0.325174,0.70211 0.371392,1.51019 0.0458,0.80084 -0.05568,1.86328 -0.301282,3.11894 -0.245602,1.25565 -0.635182,2.70419 -1.167231,4.27479 -0.53205,1.5706 -1.206374,3.26435 -2.019916,5.01 -0.813543,1.74565 -1.765465,3.54372 -2.855547,5.32454 -0.265948,0.43447 -0.598622,0.84419 -0.879213,1.27524 0.05684,-0.92743 0.05318,-1.87602 0.149694,-2.78165 0.218737,-2.0525 0.533192,-4.03488 0.917109,-5.88163 0.383917,-1.84676 0.838436,-3.55782 1.333979,-5.06874 0.495542,-1.51092 1.032381,-2.82051 1.585994,-3.8655 0.555992,-1.04949 1.139015,-1.79734 1.620101,-2.28899 0.481086,-0.49165 0.861377,-0.72676 1.015643,-0.75226 z m -27.4071873,9.12373 c 0.608748,0.0643 1.444399,0.29908 2.442468,0.72763 0.99807,0.42855 2.157726,1.0513 3.414529,1.88917 1.2538383,0.83589 2.5971333,1.88532 3.9735123,3.09998 1.376379,1.21466 2.786392,2.59458 4.176261,4.09289 0.890194,0.95964 1.736917,2.03136 2.595952,3.07535 -0.0909,-0.0344 -0.187952,-0.0581 -0.278544,-0.0928 -1.968067,-0.75579 -3.862025,-1.59168 -5.610666,-2.49174 -1.749998,-0.90075 -3.344768,-1.85357 -4.7560873,-2.80817 -1.41132,-0.95461 -2.639318,-1.91139 -3.655176,-2.81955 -1.015857,-0.90815 -1.806393,-1.79469 -2.36099,-2.541 -0.554596,-0.74632 -0.872279,-1.3513 -0.939848,-1.6959 -0.06936,-0.35369 -0.03761,-0.29489 0.01326,-0.33349 0.05088,-0.0386 0.376577,-0.1666 0.985325,-0.10232 z m 34.0998153,13.13893 c 1.769814,-0.11253 3.387917,-0.0989 4.807248,0.01 1.419331,0.10839 2.640433,0.31027 3.621068,0.57035 0.980636,0.26008 1.71789,0.58627 2.139292,0.87543 0.421402,0.28915 0.441502,0.45801 0.441502,0.44338 0,-0.0147 -0.0201,0.15424 -0.441502,0.44341 -0.421403,0.28916 -1.158657,0.61534 -2.139292,0.87542 -0.980635,0.26008 -2.201737,0.46006 -3.621068,0.56846 -1.419331,0.10838 -3.037435,0.1239 -4.807248,0.0113 -1.767384,-0.11239 -3.674915,-0.3581 -5.652354,-0.72005 -1.646527,-0.30138 -3.352366,-0.72649 -5.053578,-1.17861 1.701212,-0.4521 3.407051,-0.87721 5.053578,-1.17859 1.977439,-0.36195 3.88497,-0.60766 5.652354,-0.72005 z m -17.495199,4.04931 c -0.859573,1.04473 -1.707061,2.11696 -2.597846,3.07725 -1.389869,1.4983 -2.799882,2.87822 -4.176261,4.09289 -1.376379,1.21465 -2.719674,2.26408 -3.9735123,3.09998 -1.256803,0.83786 -2.416459,1.45873 -3.414529,1.88727 -0.998069,0.42855 -1.83372,0.66524 -2.442468,0.72952 -0.608749,0.0643 -0.934443,-0.0637 -0.985325,-0.10232 -0.05089,-0.0386 -0.08262,0.0202 -0.01326,-0.33349 0.06757,-0.34461 0.385252,-0.94958 0.939848,-1.6959 0.554597,-0.74632 1.345132,-1.63285 2.36099,-2.541 1.015857,-0.90815 2.243857,-1.86494 3.655176,-2.81955 1.4113193,-0.9546 3.0060903,-1.90742 4.7560873,-2.80817 1.74864,-0.90006 3.642599,-1.73785 5.610666,-2.49364 0.09116,-0.035 0.188973,-0.0582 0.280438,-0.0928 z m 4.180051,1.37187 c 0.280591,0.43106 0.613265,0.84078 0.879213,1.27524 1.090082,1.78082 2.042004,3.5789 2.855547,5.32455 0.813542,1.74565 1.487866,3.4394 2.019916,5.00999 0.532049,1.57059 0.921629,3.01725 1.167231,4.2729 0.245601,1.25566 0.347081,2.31999 0.301282,3.12082 -0.04622,0.80809 -0.235788,1.31889 -0.371392,1.5102 -0.135604,0.19133 -0.07501,0.15057 -0.229277,0.12507 -0.154266,-0.0255 -0.534557,-0.26061 -1.015643,-0.75226 -0.481086,-0.49165 -1.064109,-1.23949 -1.620101,-2.28898 -0.553612,-1.045 -1.090452,-2.35459 -1.585994,-3.86551 -0.495543,-1.51092 -0.950062,-3.22388 -1.333979,-5.07063 -0.383917,-1.84676 -0.698372,-3.82724 -0.917109,-5.87974 -0.09651,-0.90563 -0.09286,-1.85421 -0.149694,-2.78165 z"
       id="path1042"
       inkscape:connector-curvature="0" />
  </g>
</svg>
