<?xml version="1.0" encoding="UTF-8" standalone="no"?>
<!-- Created with Inkscape (http://www.inkscape.org/) -->

<svg
   xmlns:dc="http://purl.org/dc/elements/1.1/"
   xmlns:cc="http://creativecommons.org/ns#"
   xmlns:rdf="http://www.w3.org/1999/02/22-rdf-syntax-ns#"
   xmlns:svg="http://www.w3.org/2000/svg"
   xmlns="http://www.w3.org/2000/svg"
   xmlns:sodipodi="http://sodipodi.sourceforge.net/DTD/sodipodi-0.dtd"
   xmlns:inkscape="http://www.inkscape.org/namespaces/inkscape"
   width="50.320515mm"
   height="47.910023mm"
   viewBox="0 0 50.320515 47.910022"
   version="1.1"
   id="svg2648"
   inkscape:version="0.92.3 (2405546, 2018-03-11)"
   sodipodi:docname="snow-flake-01.svg">
  <defs
     id="defs2642" />
  <sodipodi:namedview
     id="base"
     pagecolor="#ffffff"
     bordercolor="#666666"
     borderopacity="1.0"
     inkscape:pageopacity="0.0"
     inkscape:pageshadow="2"
     inkscape:zoom="1.4"
     inkscape:cx="216.82255"
     inkscape:cy="8.5711002"
     inkscape:document-units="mm"
     inkscape:current-layer="layer1"
     showgrid="false"
     fit-margin-top="0"
     fit-margin-left="0"
     fit-margin-right="0"
     fit-margin-bottom="0"
     inkscape:window-width="1920"
     inkscape:window-height="1060"
     inkscape:window-x="1920"
     inkscape:window-y="0"
     inkscape:window-maximized="1" />
  <metadata
     id="metadata2645">
    <rdf:RDF>
      <cc:Work
         rdf:about="">
        <dc:format>image/svg+xml</dc:format>
        <dc:type
           rdf:resource="http://purl.org/dc/dcmitype/StillImage" />
        <dc:title></dc:title>
      </cc:Work>
    </rdf:RDF>
  </metadata>
  <g
     inkscape:label="Layer 1"
     inkscape:groupmode="layer"
     id="layer1"
     transform="translate(-62.001317,-58.752947)">
    <path
       id="path905"
       style="color:#000000;font-style:normal;font-variant:normal;font-weight:normal;font-stretch:normal;font-size:medium;line-height:normal;font-family:sans-serif;font-variant-ligatures:normal;font-variant-position:normal;font-variant-caps:normal;font-variant-numeric:normal;font-variant-alternates:normal;font-feature-settings:normal;text-indent:0;text-align:start;text-decoration:none;text-decoration-line:none;text-decoration-style:solid;text-decoration-color:#000000;letter-spacing:normal;word-spacing:normal;text-transform:none;writing-mode:lr-tb;direction:ltr;text-orientation:mixed;dominant-baseline:auto;baseline-shift:baseline;text-anchor:start;white-space:normal;shape-padding:0;clip-rule:nonzero;display:inline;overflow:visible;visibility:visible;opacity:1;isolation:auto;mix-blend-mode:normal;color-interpolation:sRGB;color-interpolation-filters:linearRGB;solid-color:#000000;solid-opacity:1;vector-effect:none;fill:#000000;fill-opacity:1;fill-rule:nonzero;stroke:none;stroke-width:3;stroke-linecap:round;stroke-linejoin:round;stroke-miterlimit:4;stroke-dasharray:none;stroke-dashoffset:0;stroke-opacity:1;color-rendering:auto;image-rendering:auto;shape-rendering:auto;text-rendering:auto;enable-background:accumulate"
       d="m 79.783203,58.753906 a 1.50015,1.50015 0 0 0 -0.150391,0.01563 1.50015,1.50015 0 0 0 -0.146484,0.0293 1.50015,1.50015 0 0 0 -0.142578,0.04492 1.50015,1.50015 0 0 0 -0.138672,0.05664 1.50015,1.50015 0 0 0 -0.371094,0.253906 1.50015,1.50015 0 0 0 -0.197265,0.224609 1.50015,1.50015 0 0 0 -0.08203,0.125 1.50015,1.50015 0 0 0 -0.06836,0.134766 1.50015,1.50015 0 0 0 -0.05469,0.138672 1.50015,1.50015 0 0 0 -0.03906,0.144531 1.50015,1.50015 0 0 0 -0.02539,0.148437 1.50015,1.50015 0 0 0 -0.01172,0.148438 1.50015,1.50015 0 0 0 0.0039,0.150391 1.50015,1.50015 0 0 0 0.01953,0.148437 1.50015,1.50015 0 0 0 0.0098,0.04687 c 0.315797,1.480342 0.490257,2.985778 0.548828,4.503906 0.07538,1.953791 -0.158098,3.917683 -0.423828,5.888672 -1.709081,-0.319686 -3.386194,-0.745834 -5.009766,-1.30664 -1.611413,-0.556607 -3.170406,-1.240742 -4.654297,-2.074219 a 1.50015,1.50015 0 0 0 -0.132812,-0.06836 1.50015,1.50015 0 0 0 -0.140625,-0.05273 1.50015,1.50015 0 0 0 -0.144531,-0.03906 1.50015,1.50015 0 0 0 -0.148438,-0.02344 1.50015,1.50015 0 0 0 -0.150391,-0.0098 1.50015,1.50015 0 0 0 -0.15039,0.0059 1.50015,1.50015 0 0 0 -0.148438,0.02148 1.50015,1.50015 0 0 0 -0.144531,0.03516 1.50015,1.50015 0 0 0 -0.142578,0.05078 1.50015,1.50015 0 0 0 -0.134766,0.06445 1.50015,1.50015 0 0 0 -0.128906,0.07617 1.50015,1.50015 0 0 0 -0.121094,0.08984 1.50015,1.50015 0 0 0 -0.109375,0.09961 1.50015,1.50015 0 0 0 -0.101562,0.113281 1.50015,1.50015 0 0 0 -0.08789,0.121094 1.50015,1.50015 0 0 0 -0.07617,0.128906 1.50015,1.50015 0 0 0 -0.0625,0.134766 1.50015,1.50015 0 0 0 -0.04883,0.142578 1.50015,1.50015 0 0 0 -0.03516,0.146484 1.50015,1.50015 0 0 0 -0.01953,0.148438 1.50015,1.50015 0 0 0 -0.0039,0.15039 1.50015,1.50015 0 0 0 0.0098,0.148438 1.50015,1.50015 0 0 0 0.02539,0.148437 1.50015,1.50015 0 0 0 0.03906,0.144532 1.50015,1.50015 0 0 0 0.123047,0.273437 1.50015,1.50015 0 0 0 0.08008,0.126953 1.50015,1.50015 0 0 0 0.0918,0.117188 1.50015,1.50015 0 0 0 0.105469,0.107422 1.50015,1.50015 0 0 0 0.01172,0.01172 c 1.168539,1.066407 2.233187,2.240741 3.203125,3.496094 0.969938,1.255353 1.846847,2.591608 2.640625,3.988281 0.133823,0.235466 0.232139,0.493731 0.361328,0.732422 -0.284548,0.136553 -0.554801,0.310157 -0.841797,0.439453 -1.463242,0.659214 -2.957118,1.22067 -4.478516,1.658204 -1.521397,0.437533 -3.070233,0.749563 -4.640625,0.910156 a 1.50015,1.50015 0 0 0 -0.292968,0.06055 1.50015,1.50015 0 0 0 -0.140626,0.05273 1.50015,1.50015 0 0 0 -0.134765,0.06445 1.50015,1.50015 0 0 0 -0.128906,0.08008 1.50015,1.50015 0 0 0 -0.119141,0.08984 1.50015,1.50015 0 0 0 -0.109375,0.103516 1.50015,1.50015 0 0 0 -0.09766,0.113281 1.50015,1.50015 0 0 0 -0.08789,0.121094 1.50015,1.50015 0 0 0 -0.07422,0.130859 1.50015,1.50015 0 0 0 -0.06055,0.136719 1.50015,1.50015 0 0 0 -0.04687,0.142578 1.50015,1.50015 0 0 0 -0.0332,0.146484 1.50015,1.50015 0 0 0 -0.01758,0.148438 1.50015,1.50015 0 0 0 -0.002,0.15039 1.50015,1.50015 0 0 0 0.01172,0.150391 1.50015,1.50015 0 0 0 0.02734,0.146484 1.50015,1.50015 0 0 0 0.04297,0.144532 1.50015,1.50015 0 0 0 0.125,0.271484 1.50015,1.50015 0 0 0 0.08203,0.125 1.50015,1.50015 0 0 0 0.09375,0.117188 1.50015,1.50015 0 0 0 0.107422,0.105468 1.50015,1.50015 0 0 0 0.115234,0.0957 1.50015,1.50015 0 0 0 0.125,0.08398 1.50015,1.50015 0 0 0 0.130859,0.07031 1.50015,1.50015 0 0 0 0.140625,0.05664 1.50015,1.50015 0 0 0 0.142578,0.04297 1.50015,1.50015 0 0 0 0.148438,0.02734 1.50015,1.50015 0 0 0 0.05273,0.0059 c 1.570393,0.160595 3.119227,0.474575 4.640625,0.912109 1.521398,0.437534 3.015274,0.99899 4.478516,1.658203 0.263241,0.118594 0.5103,0.279583 0.771484,0.404297 -0.456847,0.836958 -0.915551,1.669089 -1.421875,2.466797 -0.324513,0.502427 -0.632844,1.016113 -0.982422,1.498047 -1.08616,1.526635 -2.263389,2.964651 -3.632812,4.179687 -0.03557,0.03289 -0.06189,0.07473 -0.09766,0.107422 a 1.50015,1.50015 0 0 0 -0.04102,0.04297 1.50015,1.50015 0 0 0 -0.05273,0.05273 1.50015,1.50015 0 0 0 -0.05078,0.06055 1.50015,1.50015 0 0 0 -0.04492,0.05469 1.50015,1.50015 0 0 0 -0.0098,0.01172 1.50015,1.50015 0 0 0 -0.02734,0.04297 1.50015,1.50015 0 0 0 -0.05078,0.07813 1.50015,1.50015 0 0 0 -0.0039,0.0059 1.50015,1.50015 0 0 0 -0.01172,0.02344 1.50015,1.50015 0 0 0 -0.05273,0.09766 1.50015,1.50015 0 0 0 -0.0059,0.01172 1.50015,1.50015 0 0 0 -0.01758,0.04492 1.50015,1.50015 0 0 0 -0.0332,0.08203 1.50015,1.50015 0 0 0 -0.0039,0.01172 1.50015,1.50015 0 0 0 -0.02148,0.07813 1.50015,1.50015 0 0 0 -0.01367,0.04492 1.50015,1.50015 0 0 0 -0.0059,0.02148 1.50015,1.50015 0 0 0 -0.01172,0.05859 1.50015,1.50015 0 0 0 -0.01367,0.07422 1.50015,1.50015 0 0 0 -0.0078,0.09961 1.50015,1.50015 0 0 0 -0.0039,0.03906 1.50015,1.50015 0 0 0 -0.002,0.02539 1.50015,1.50015 0 0 0 0.002,0.07422 1.50015,1.50015 0 0 0 0.002,0.0625 1.50015,1.50015 0 0 0 0,0.01367 1.50015,1.50015 0 0 0 0.0039,0.03516 1.50015,1.50015 0 0 0 0.01367,0.105469 1.50015,1.50015 0 0 0 0,0.0078 1.50015,1.50015 0 0 0 0.0098,0.04492 1.50015,1.50015 0 0 0 0.01953,0.08789 1.50015,1.50015 0 0 0 0.01563,0.05078 1.50015,1.50015 0 0 0 0.0332,0.09766 1.50015,1.50015 0 0 0 0.002,0.0078 1.50015,1.50015 0 0 0 0.01367,0.0332 1.50015,1.50015 0 0 0 0.04102,0.08984 1.50015,1.50015 0 0 0 0.0059,0.01367 1.50015,1.50015 0 0 0 0.03516,0.06055 1.50015,1.50015 0 0 0 0.0293,0.05078 1.50015,1.50015 0 0 0 0.0098,0.01758 1.50015,1.50015 0 0 0 0.07031,0.09766 1.50015,1.50015 0 0 0 0.01758,0.02539 1.50015,1.50015 0 0 0 0.04883,0.05469 1.50015,1.50015 0 0 0 0.04883,0.05273 1.50015,1.50015 0 0 0 0.002,0.0039 1.50015,1.50015 0 0 0 0.01172,0.0098 1.50015,1.50015 0 0 0 0.08984,0.08789 1.50015,1.50015 0 0 0 0.0078,0.0059 1.50015,1.50015 0 0 0 0.04102,0.0293 1.50015,1.50015 0 0 0 0.06641,0.05273 1.50015,1.50015 0 0 0 0.01172,0.0078 1.50015,1.50015 0 0 0 0.03906,0.02344 1.50015,1.50015 0 0 0 0.08203,0.05078 1.50015,1.50015 0 0 0 0.0059,0.0039 1.50015,1.50015 0 0 0 0.02148,0.0098 1.50015,1.50015 0 0 0 0.109375,0.05273 1.50015,1.50015 0 0 0 0.117187,0.04492 1.50015,1.50015 0 0 0 0.0098,0.0039 1.50015,1.50015 0 0 0 0.01953,0.0059 1.50015,1.50015 0 0 0 0.05273,0.01367 1.50015,1.50015 0 0 0 0.08203,0.02148 1.50015,1.50015 0 0 0 0.0098,0.002 1.50015,1.50015 0 0 0 0.05078,0.0078 1.50015,1.50015 0 0 0 0.06641,0.01172 1.50015,1.50015 0 0 0 0.01172,0 1.50015,1.50015 0 0 0 0.01953,0.0039 1.50015,1.50015 0 0 0 0.07227,0.002 1.50015,1.50015 0 0 0 0.06641,0.0039 1.50015,1.50015 0 0 0 0.01172,0 1.50015,1.50015 0 0 0 0.06055,-0.002 1.50015,1.50015 0 0 0 0.05859,-0.002 1.50015,1.50015 0 0 0 0.0078,-0.002 1.50015,1.50015 0 0 0 0.09375,-0.01172 1.50015,1.50015 0 0 0 0.06445,-0.0098 1.50015,1.50015 0 0 0 0.04102,-0.0098 1.50015,1.50015 0 0 0 0.113282,-0.02734 1.50015,1.50015 0 0 0 0.0039,-0.002 1.50015,1.50015 0 0 0 0.111328,-0.03906 1.50015,1.50015 0 0 0 0.01172,-0.0059 1.50015,1.50015 0 0 0 0.01758,-0.0059 1.50015,1.50015 0 0 0 0.08008,-0.03711 1.50015,1.50015 0 0 0 0.02734,-0.01367 1.50015,1.50015 0 0 0 0.02734,-0.01367 1.50015,1.50015 0 0 0 0.02539,-0.01563 c 1.230891,-0.705484 2.521549,-1.298354 3.855469,-1.796875 1.333919,-0.49852 2.711341,-0.903154 4.117187,-1.226562 0.558777,-0.128544 1.152044,-0.116308 1.71875,-0.220703 0.04461,0.339964 0.179307,0.669704 0.214844,1.009765 0.162969,1.559483 0.227587,3.117683 0.171875,4.664062 -0.05571,1.54638 -0.232455,3.08143 -0.552734,4.58985 A 1.50015,1.50015 0 0 0 78.363281,105 a 1.50015,1.50015 0 0 0 -0.0078,0.15039 1.50015,1.50015 0 0 0 0.0059,0.15039 1.50015,1.50015 0 0 0 0.02148,0.14844 1.50015,1.50015 0 0 0 0.08594,0.28711 1.50015,1.50015 0 0 0 0.06445,0.13476 1.50015,1.50015 0 0 0 0.07617,0.12891 1.50015,1.50015 0 0 0 0.08984,0.11914 1.50015,1.50015 0 0 0 0.101562,0.11133 1.50015,1.50015 0 0 0 0.113281,0.0996 1.50015,1.50015 0 0 0 0.121094,0.0879 1.50015,1.50015 0 0 0 0.265625,0.13867 1.50015,1.50015 0 0 0 0.140625,0.0488 1.50015,1.50015 0 0 0 0.146485,0.0332 1.50015,1.50015 0 0 0 0.148437,0.0195 1.50015,1.50015 0 0 0 0.300781,-0.006 1.50015,1.50015 0 0 0 0.146485,-0.0254 1.50015,1.50015 0 0 0 0.144531,-0.041 1.50015,1.50015 0 0 0 0.140625,-0.0547 1.50015,1.50015 0 0 0 0.132812,-0.0664 1.50015,1.50015 0 0 0 0.126954,-0.082 1.50015,1.50015 0 0 0 0.117187,-0.0937 1.50015,1.50015 0 0 0 0.107422,-0.10351 1.50015,1.50015 0 0 0 0.0957,-0.11524 1.50015,1.50015 0 0 0 0.08594,-0.12304 1.50015,1.50015 0 0 0 0.07227,-0.13282 1.50015,1.50015 0 0 0 0.01758,-0.041 c 1.261931,-2.83834 3.057285,-5.41334 5.173829,-7.757815 0.223996,-0.248118 0.521015,-0.430859 0.751953,-0.673828 2.41268,2.538544 4.528516,5.293303 5.923828,8.431643 a 1.50015,1.50015 0 0 0 0.06836,0.13476 1.50015,1.50015 0 0 0 0.08203,0.125 1.50015,1.50015 0 0 0 0.0918,0.11719 1.50015,1.50015 0 0 0 0.105469,0.10938 1.50015,1.50015 0 0 0 0.113281,0.0957 1.50015,1.50015 0 0 0 0.125,0.0859 1.50015,1.50015 0 0 0 0.13086,0.0703 1.50015,1.50015 0 0 0 0.138672,0.0586 1.50015,1.50015 0 0 0 0.142578,0.0449 1.50015,1.50015 0 0 0 0.146484,0.0312 1.50015,1.50015 0 0 0 0.148438,0.0137 1.50015,1.50015 0 0 0 0.15039,0.002 1.50015,1.50015 0 0 0 0.150391,-0.0156 1.50015,1.50015 0 0 0 0.146484,-0.0293 1.50015,1.50015 0 0 0 0.142578,-0.0449 1.50015,1.50015 0 0 0 0.138672,-0.0586 1.50015,1.50015 0 0 0 0.130859,-0.0703 1.50015,1.50015 0 0 0 0.125,-0.084 1.50015,1.50015 0 0 0 0.115235,-0.0977 1.50015,1.50015 0 0 0 0.103515,-0.10742 1.50015,1.50015 0 0 0 0.09375,-0.11719 1.50015,1.50015 0 0 0 0.08203,-0.125 1.50015,1.50015 0 0 0 0.06836,-0.13477 1.50015,1.50015 0 0 0 0.05469,-0.13867 1.50015,1.50015 0 0 0 0.03906,-0.14453 1.50015,1.50015 0 0 0 0.02539,-0.14844 1.50015,1.50015 0 0 0 0.01172,-0.15039 1.50015,1.50015 0 0 0 -0.0039,-0.14843 1.50015,1.50015 0 0 0 -0.0293,-0.19532 c -0.315797,-1.48034 -0.490257,-2.98578 -0.548828,-4.5039 -0.05857,-1.518132 -0.0015,-3.050084 0.152344,-4.582035 0.04421,-0.44037 0.212106,-0.868356 0.271484,-1.308594 0.01217,0.0023 0.02495,0.0016 0.03711,0.0039 1.695809,0.318936 3.361242,0.748081 4.972657,1.304687 1.61141,0.556606 3.1704,1.240744 4.65429,2.074219 a 1.50015,1.50015 0 0 0 0.13281,0.06836 1.50015,1.50015 0 0 0 0.14063,0.05273 1.50015,1.50015 0 0 0 0.14453,0.03711 1.50015,1.50015 0 0 0 0.14844,0.02539 1.50015,1.50015 0 0 0 0.30078,0.002 1.50015,1.50015 0 0 0 0.14844,-0.01953 1.50015,1.50015 0 0 0 0.14453,-0.03516 1.50015,1.50015 0 0 0 0.14258,-0.05078 1.50015,1.50015 0 0 0 0.13476,-0.06445 1.50015,1.50015 0 0 0 0.12891,-0.07617 1.50015,1.50015 0 0 0 0.12109,-0.08984 1.50015,1.50015 0 0 0 0.10938,-0.09961 1.50015,1.50015 0 0 0 0.10156,-0.113282 1.50015,1.50015 0 0 0 0.0879,-0.121093 1.50015,1.50015 0 0 0 0.0762,-0.128907 1.50015,1.50015 0 0 0 0.0625,-0.134765 1.50015,1.50015 0 0 0 0.0488,-0.142578 1.50015,1.50015 0 0 0 0.0352,-0.146485 1.50015,1.50015 0 0 0 0.0195,-0.148437 1.50015,1.50015 0 0 0 0.004,-0.150391 1.50015,1.50015 0 0 0 -0.01,-0.148437 1.50015,1.50015 0 0 0 -0.0254,-0.148438 1.50015,1.50015 0 0 0 -0.0391,-0.144531 1.50015,1.50015 0 0 0 -0.0547,-0.140625 1.50015,1.50015 0 0 0 -0.0684,-0.132813 1.50015,1.50015 0 0 0 -0.0801,-0.126953 1.50015,1.50015 0 0 0 -0.0937,-0.117187 1.50015,1.50015 0 0 0 -0.10352,-0.107422 1.50015,1.50015 0 0 0 -0.0137,-0.01172 c -1.16854,-1.066407 -2.23123,-2.240741 -3.20117,-3.496093 -0.96994,-1.255353 -1.84685,-2.593562 -2.64062,-3.990235 -0.13359,-0.235045 -0.23237,-0.492209 -0.36133,-0.730469 0.28455,-0.136553 0.5548,-0.310156 0.84179,-0.439453 1.46325,-0.659213 2.95712,-1.220669 4.47852,-1.658203 1.5214,-0.437533 3.07023,-0.751517 4.64062,-0.912109 a 1.50015,1.50015 0 0 0 -0.0273,-2.990235 c -1.56085,-0.161434 -3.10088,-0.46935 -4.61328,-0.904296 -1.5214,-0.437534 -3.01527,-0.998991 -4.47852,-1.658204 -0.28911,-0.130249 -0.56102,-0.305747 -0.84765,-0.443359 0.10253,-0.189332 0.1797,-0.394718 0.28515,-0.582031 0.80201,-1.424562 1.68801,-2.78831 2.67188,-4.06836 0.98387,-1.280049 2.06524,-2.476025 3.25391,-3.5625 a 1.50015,1.50015 0 0 0 0.10546,-0.107422 1.50015,1.50015 0 0 0 0.0937,-0.115234 1.50015,1.50015 0 0 0 0.082,-0.126953 1.50015,1.50015 0 0 0 0.0684,-0.132813 1.50015,1.50015 0 0 0 0.0566,-0.138671 1.50015,1.50015 0 0 0 0.041,-0.144532 1.50015,1.50015 0 0 0 0.0273,-0.146484 1.50015,1.50015 0 0 0 0.0117,-0.150391 1.50015,1.50015 0 0 0 -0.004,-0.15039 1.50015,1.50015 0 0 0 -0.0176,-0.148438 1.50015,1.50015 0 0 0 -0.0332,-0.146484 1.50015,1.50015 0 0 0 -0.0469,-0.142578 1.50015,1.50015 0 0 0 -0.0606,-0.136719 1.50015,1.50015 0 0 0 -0.1621,-0.251953 1.50015,1.50015 0 0 0 -0.20899,-0.214844 1.50015,1.50015 0 0 0 -0.11914,-0.08984 1.50015,1.50015 0 0 0 -0.12891,-0.07813 1.50015,1.50015 0 0 0 -0.13476,-0.06641 1.50015,1.50015 0 0 0 -0.58399,-0.119141 1.50015,1.50015 0 0 0 -0.14843,0.0078 1.50015,1.50015 0 0 0 -0.14844,0.02344 1.50015,1.50015 0 0 0 -0.14649,0.03711 1.50015,1.50015 0 0 0 -0.14062,0.05078 1.50015,1.50015 0 0 0 -0.13477,0.06445 1.50015,1.50015 0 0 0 -0.0254,0.01563 c -1.23089,0.705485 -2.52155,1.298353 -3.85547,1.796875 -1.8641,0.696668 -3.843426,1.080218 -5.835929,1.447266 -0.04461,-0.339964 -0.179307,-0.669705 -0.214844,-1.009766 -0.162969,-1.559483 -0.227587,-3.117682 -0.171875,-4.664062 0.05571,-1.54638 0.230502,-3.081431 0.550781,-4.589844 a 1.50015,1.50015 0 0 0 0.02539,-0.146484 1.50015,1.50015 0 0 0 0.0078,-0.150391 1.50015,1.50015 0 0 0 -0.0059,-0.150391 1.50015,1.50015 0 0 0 -0.02148,-0.148437 1.50015,1.50015 0 0 0 -0.03516,-0.144531 1.50015,1.50015 0 0 0 -0.05078,-0.142578 A 1.50015,1.50015 0 0 0 95.767043,59.54479 1.50015,1.50015 0 0 0 95.601562,59.296875 1.50015,1.50015 0 0 0 95.5,59.185547 1.50015,1.50015 0 0 0 95.386719,59.085938 1.50015,1.50015 0 0 0 95.265625,58.998047 1.50015,1.50015 0 0 0 95.136719,58.921875 1.50015,1.50015 0 0 0 95,58.859375 a 1.50015,1.50015 0 0 0 -0.140625,-0.04883 1.50015,1.50015 0 0 0 -0.146484,-0.0332 1.50015,1.50015 0 0 0 -0.148438,-0.01953 1.50015,1.50015 0 0 0 -0.150391,-0.0039 1.50015,1.50015 0 0 0 -0.15039,0.0098 1.50015,1.50015 0 0 0 -0.146484,0.02539 1.50015,1.50015 0 0 0 -0.144532,0.04102 1.50015,1.50015 0 0 0 -0.140625,0.05469 1.50015,1.50015 0 0 0 -0.259765,0.148437 1.50015,1.50015 0 0 0 -0.117188,0.09375 1.50015,1.50015 0 0 0 -0.107422,0.103516 1.50015,1.50015 0 0 0 -0.09766,0.115234 1.50015,1.50015 0 0 0 -0.08398,0.123047 1.50015,1.50015 0 0 0 -0.07227,0.132812 1.50015,1.50015 0 0 0 -0.01953,0.04102 c -1.39531,3.138332 -3.511148,5.893097 -5.923828,8.431641 -0.230938,-0.242969 -0.527957,-0.42571 -0.751953,-0.673828 -1.058272,-1.172236 -2.035082,-2.401518 -2.90625,-3.69336 -0.871169,-1.291842 -1.636614,-2.645286 -2.267579,-4.064453 a 1.50015,1.50015 0 0 0 -0.06641,-0.134766 1.50015,1.50015 0 0 0 -0.08203,-0.125 1.50015,1.50015 0 0 0 -0.0918,-0.117187 1.50015,1.50015 0 0 0 -0.105469,-0.109375 1.50015,1.50015 0 0 0 -0.113281,-0.0957 1.50015,1.50015 0 0 0 -0.125,-0.08594 1.50015,1.50015 0 0 0 -0.130859,-0.07227 1.50015,1.50015 0 0 0 -0.138672,-0.05859 1.50015,1.50015 0 0 0 -0.439453,-0.08789 1.50015,1.50015 0 0 0 -0.148438,-0.002 z m 2.105469,7.759766 c 0.728923,0.988426 1.451013,1.983467 2.271484,2.892578 0.225601,0.249974 0.485382,0.462793 0.716797,0.707031 -0.532908,0.487902 -1.055247,0.977527 -1.609375,1.44336 -0.57607,-0.04424 -1.140118,-0.14987 -1.71289,-0.214844 0.0634,-0.470088 0.173326,-0.92978 0.220703,-1.402344 0.113799,-1.135109 0.104655,-2.281792 0.113281,-3.425781 z m 10.523437,0.002 c 0.0086,1.203499 0.0043,2.407875 0.128907,3.601563 0.0386,0.369936 0.131223,0.729211 0.179687,1.097656 -0.60668,0.07029 -1.201109,0.182743 -1.810547,0.232422 -0.510523,-0.431817 -0.99407,-0.883316 -1.486328,-1.333985 0.231415,-0.244238 0.491196,-0.457057 0.716797,-0.707031 0.820128,-0.908732 1.542823,-1.902646 2.271484,-2.890625 z m 8.503911,6.189453 c -0.799,1.115409 -1.588393,2.239534 -2.25977,3.431641 -0.123673,0.219595 -0.210435,0.456054 -0.330078,0.677734 -0.257278,-0.145971 -0.528295,-0.259389 -0.783203,-0.410156 -0.242161,-0.143228 -0.467058,-0.313677 -0.707031,-0.460938 -0.180035,-0.725547 -0.317241,-1.452184 -0.464844,-2.183593 0.592744,-0.109656 1.190684,-0.09302 1.779297,-0.228516 0.936033,-0.215462 1.84652,-0.53754 2.765629,-0.826172 z m -27.525395,0.01172 c 1.4856,0.471917 2.986088,0.899791 4.513672,1.1875 -0.13882,0.678336 -0.25372,1.354141 -0.419922,2.027344 -0.246384,0.151339 -0.477871,0.325565 -0.726563,0.472656 -0.257165,0.152103 -0.531439,0.26489 -0.791015,0.412109 -0.147837,-0.274074 -0.258103,-0.565052 -0.412109,-0.835937 -0.644459,-1.133551 -1.403297,-2.200101 -2.164063,-3.263672 z m 16.390625,1.892578 c 0.640695,0.519128 1.266117,1.070995 1.917969,1.560547 a 1.50015,1.50015 0 0 0 0.03125,0.02344 c 0.741035,0.526128 1.53696,1.004198 2.308593,1.50586 0.201439,0.751738 0.368342,1.521625 0.59375,2.257812 a 1.50015,1.50015 0 0 0 0.0098,0.03125 c 0.301596,0.910773 0.678838,1.813601 1.025391,2.720703 -0.388502,1.019274 -0.801212,2.034259 -1.132813,3.058594 a 1.50015,1.50015 0 0 0 -0.0098,0.0332 c -0.187033,0.626635 -0.3241,1.281978 -0.494141,1.919922 -0.769109,0.500175 -1.56208,0.977483 -2.300781,1.501953 a 1.50015,1.50015 0 0 0 -0.03125,0.02344 c -0.64654,0.485562 -1.266751,1.032222 -1.902344,1.546875 -1.479716,-0.07212 -2.959525,-0.124414 -4.417969,-0.0918 a 1.50015,1.50015 0 0 0 -0.03711,0 c -0.271395,0.01281 -0.54793,0.08943 -0.820313,0.105469 -0.641231,-0.5196 -1.26751,-1.070576 -1.919922,-1.560547 a 1.50015,1.50015 0 0 0 -0.03125,-0.02344 C 81.829717,88.696842 81.034829,88.218178 80.263672,87.716797 80.06213,86.964606 79.89351,86.195606 79.667969,85.458984 a 1.50015,1.50015 0 0 0 -0.0098,-0.03125 c -0.301597,-0.910772 -0.678837,-1.813601 -1.025391,-2.720703 0.388597,-1.019485 0.801143,-2.035997 1.132813,-3.060547 a 1.50015,1.50015 0 0 0 0.0098,-0.03125 c 0.18696,-0.626394 0.324157,-1.282227 0.49414,-1.919922 0.769109,-0.500175 1.56208,-0.977483 2.300781,-1.501953 a 1.50015,1.50015 0 0 0 0.03125,-0.02344 c 0.646382,-0.485444 1.266903,-1.032356 1.902344,-1.546875 1.479188,0.07205 2.960043,0.124403 4.417969,0.0918 a 1.50015,1.50015 0 0 0 0.03711,0 c 0.272032,-0.01284 0.549243,-0.08938 0.822266,-0.105469 z m -15.144531,6.287109 c 0.142362,0.312919 0.319241,0.605582 0.455078,0.921875 0.126599,0.294784 0.218733,0.603058 0.339844,0.900391 -0.08675,0.21304 -0.150657,0.434754 -0.240235,0.646484 -0.166953,0.394619 -0.383454,0.760981 -0.560547,1.150391 -0.319742,-0.153904 -0.617589,-0.346368 -0.941406,-0.492187 -1.152689,-0.519073 -2.357527,-0.916285 -3.560547,-1.316407 1.202797,-0.400074 2.408064,-0.795473 3.560547,-1.314453 0.325952,-0.146781 0.625443,-0.341123 0.947266,-0.496094 z m 25.033203,0.0039 c 0.319742,0.153904 0.617588,0.346368 0.941408,0.492187 1.15248,0.51898 2.35775,0.914379 3.56055,1.314453 -1.20303,0.400123 -2.40786,0.797334 -3.56055,1.316407 -0.32568,0.146656 -0.625714,0.339307 -0.947268,0.49414 -0.274833,-0.604145 -0.544037,-1.204378 -0.794921,-1.820312 0.08675,-0.21304 0.150656,-0.434755 0.240234,-0.646485 0.166953,-0.394618 0.383454,-0.760981 0.560547,-1.15039 z m -1.335938,7.699218 c 0.147838,0.274074 0.258103,0.565052 0.41211,0.835938 0.644458,1.13355 1.403296,2.200101 2.164066,3.263672 -1.485604,-0.471917 -2.986092,-0.899791 -4.513676,-1.1875 0.138689,-0.677681 0.253903,-1.352834 0.419922,-2.025391 0.246684,-0.151531 0.477565,-0.327337 0.726563,-0.474609 0.257165,-0.152103 0.531439,-0.26489 0.791015,-0.41211 z m -22.361328,0.002 c 0.257786,0.146248 0.52975,0.259094 0.785156,0.410157 0.242161,0.143228 0.467059,0.313676 0.707032,0.460937 0.180034,0.725547 0.317241,1.452184 0.464844,2.183594 -0.592745,0.109656 -1.190685,0.09302 -1.779297,0.228516 -0.918805,0.211495 -1.812281,0.528636 -2.714844,0.810546 0.334149,-0.476938 0.609985,-0.96899 0.919922,-1.458984 0.423258,-0.656592 0.904297,-1.277304 1.287109,-1.957031 0.123653,-0.21956 0.210454,-0.456091 0.330078,-0.677735 z m 15.058594,5.257813 c 0.576744,0.0443 1.141407,0.149768 1.714844,0.214844 -0.06338,0.469978 -0.175291,0.929891 -0.222656,1.402343 -0.113735,1.134457 -0.102642,2.2805 -0.111329,3.423829 -0.728661,-0.98798 -1.451356,-1.981893 -2.271484,-2.890625 -0.225847,-0.250248 -0.485123,-0.464486 -0.716797,-0.708985 0.53217,-0.487182 1.054093,-0.976229 1.607422,-1.441406 z m -7.640625,0.109375 c 0.510597,0.431887 0.994003,0.883238 1.486328,1.333984 -0.231351,0.244174 -0.491257,0.457125 -0.716797,0.707032 -0.820128,0.908731 -1.542823,1.902645 -2.271484,2.890625 -0.0086,-1.2035 -0.0043,-2.407875 -0.128906,-3.601563 -0.03859,-0.369795 -0.131246,-0.729351 -0.179688,-1.097656 0.606681,-0.07029 1.201109,-0.182743 1.810547,-0.232422 z"
       inkscape:connector-curvature="0" />
  </g>
</svg>
